<?xml version="1.0" encoding="utf-8"?>
<svg xmlns="http://www.w3.org/2000/svg" height="516" viewBox="0 0 1936 2064" width="484">
<path d="M347.5 315.03 c-6.25 .45 -13.19 1.72 -18.5 3.39 -4.68 1.47 -10.3 3.16 -12.5&#xA;3.77 -2.2 .6 -4.68 1.65 -5.5 2.34 -.82 .68 -4.2 2.71 -7.5 4.5 -4.15 2.26&#xA;-10.87 8.08 -21.75 18.85 -8.66 8.58 -15.75 16.34 -15.75 17.25 0 .91 -1.81&#xA;4.64 -4.02 8.28 -2.21 3.64 -5.12 10.1 -6.46 14.35 -1.34 4.25 -3.19 12.01&#xA;-4.11 17.23 -1.53 8.73 -1.7 38.24 -2.05 362.5 -.21 194.15 -.55 359.08 -.76&#xA;366.5 -.21 7.42 -.4 17.78 -.43 23 -.03 5.22 .13 116.15 .36 246.5 .23 130.35&#xA;.85 247.58 1.38 260.5 .74 17.91 1.45 25.35 2.99 31.28 1.11 4.28 3.84 11.66&#xA;6.06 16.39 2.22 4.73 6.55 12.39 9.63 17.02 3.08 4.63 9.47 12.48 14.2 17.46&#xA;4.73 4.97 11.39 11.03 14.8 13.46 3.41 2.43 10.5 6.46 15.77 8.96 5.27 2.49&#xA;13.94 5.64 19.28 7 5.68 1.44 15.34 2.87 23.28 3.45 8.74 .64 219.51 .97&#xA;592.07 .93 318.18 -.04 591.33 -.45 607 -.92 25.56 -.77 29.51 -1.12 38.28&#xA;-3.39 5.38 -1.39 13.93 -4.51 19 -6.92 5.07 -2.42 12.82 -7.09 17.22 -10.39&#xA;4.4 -3.3 11.17 -9.34 15.04 -13.44 3.87 -4.1 9.56 -11.26 12.64 -15.91 3.08&#xA;-4.65 7.22 -11.71 9.2 -15.67 1.98 -3.97 4.78 -11.17 6.22 -16 2.36 -7.9 2.7&#xA;-11.21 3.44 -32.79 .45 -13.2 .84 -81.15 .86 -151 .02 -69.85 -.18 -343 -.44&#xA;-607 -.26 -264 -.69 -485.17 -.94 -491.5 -.33 -8.16 -1.23 -14.26 -3.09 -21&#xA;-1.44 -5.22 -4.71 -13.54 -7.25 -18.48 -2.54 -4.94 -7.18 -12.36 -10.31 -16.5&#xA;-3.13 -4.14 -9.72 -11.46 -14.65 -16.27 -4.93 -4.81 -9.56 -8.75 -10.29 -8.75&#xA;-.73 0 -2.49 -1.12 -3.92 -2.48 -1.43 -1.37 -6.76 -4.51 -11.86 -6.99 -5.1&#xA;-2.48 -12.73 -5.38 -16.96 -6.45 -4.23 -1.07 -11.22 -2.42 -15.52 -3.01 -5.48&#xA;-.75 -190.26 -1.02 -616 -.91 -334.5 .09 -612.68 .48 -618.18 .88z m318.5&#xA;164.75 l5.5 2.72 6.64 15 c4.88 11.02 7.87 16.37 11.26 20.15 4.58 5.11 4.64&#xA;5.15 8.27 4.03 3.23 -.99 3.78 -.9 4.74 .79 .6 1.05 2.76 3.74 4.81 5.97 2.69&#xA;2.93 3.73 3.57 3.75 2.31 .01 -.96 .41 -1.75 .89 -1.75 .52 0 7.14 14.32 7.14&#xA;15.44 0 .27 -1.4 2.08 -3.1 4.02 -1.71 1.94 -3.51 3.53 -4 3.53 -.49 0 -.9&#xA;-.98 -.9 -2.19 0 -2.1 -.12 -2.07 -3 .69 -1.65 1.58 -3 3.46 -3 4.18 0 .72&#xA;1.66 5.46 3.7 10.54 2.11 5.27 5.1 10.75 6.97 12.76 2.47 2.65 3.28 3.09 3.3&#xA;1.77 .01 -.96 .41 -1.75 .89 -1.75 .47 0 1.81 2.89 2.97 6.41 1.84 5.61 1.97&#xA;7.17 1.03 12.5 -.59 3.35 -1.47 6.09 -1.97 6.09 -.49 0 -.89 -.77 -.89 -1.7 0&#xA;-1.27 -.96 -.78 -3.75 1.9 -5.01 4.82 -37.47 21.05 -42.25 21.12 -1.92 .03&#xA;-5.8 -.96 -8.62 -2.2 -4.37 -1.92 -5.5 -3.02 -7.7 -7.51 -1.42 -2.89 -3.52&#xA;-7.7 -4.68 -10.68 -1.16 -2.98 -3.66 -9.07 -5.55 -13.53 -1.9 -4.46 -3.45&#xA;-8.92 -3.45 -9.92 0 -1 -.63 -2.52 -1.4 -3.39 -.77 -.87 -3.92 -7.29 -7&#xA;-14.27 -3.08 -6.98 -5.6 -13.52 -5.6 -14.53 0 -1.01 -.78 -2.95 -1.74 -4.31&#xA;-.95 -1.36 -2.96 -5.06 -4.46 -8.23 -1.5 -3.17 -4.32 -10.01 -6.26 -15.21&#xA;-1.95 -5.2 -3.54 -10.74 -3.54 -12.31 0 -1.57 .7 -5.21 1.55 -8.09 l1.55&#xA;-5.23 18.04 -8.95 c11.49 -5.71 19.19 -8.94 21.2 -8.92 1.74 .02 5.63 1.26&#xA;8.66 2.75z m-48.29 80.72 c1.24 2.2 2.27 4.96 2.28 6.13 .01 1.17 .76 2.75&#xA;1.67 3.5 .91 .75 2.48 3.17 3.48 5.37 1 2.2 1.83 5.23 1.84 6.73 .01 1.75&#xA;-.78 3.24 -2.23 4.16 -1.24 .79 -5.17 2.65 -8.75 4.14 -3.58 1.48 -6.76 3.11&#xA;-7.08 3.61 -.32 .5 -.08 3.35 .46 6.35 .8 4.43 .63 6.26 -.74 9.74 -.92 2.35&#xA;-4.71 9.56 -8.41 16.03 -3.7 6.46 -7.07 11.75 -7.48 11.75 -.41 0 -.76 -.79&#xA;-.78 -1.75 -.02 -1.29 -.98 -.73 -3.62 2.11 -3.1 3.33 -3.52 4.36 -3.1 7.53&#xA;.27 2.02 4.43 11.98 9.24 22.14 4.81 10.16 10.49 22.48 12.62 27.39 2.47 5.68&#xA;3.88 10.45 3.88 13.11 0 2.31 -.46 6.59 -1.01 9.52 -1.01 5.32 -1 5.34 2.63&#xA;9.06 l3.64 3.73 3.62 -2.25 c1.99 -1.24 5.87 -2.85 8.62 -3.58 2.75 -.73 5.45&#xA;-1.59 6 -1.91 .55 -.32 2.18 -.64 3.63 -.72 1.44 -.08 7 -1.2 12.34 -2.49&#xA;l9.72 -2.34 9.8 3.38 9.8 3.38 4.36 -2.55 c2.4 -1.4 9.54 -4.59 15.86 -7.08&#xA;6.33 -2.49 14.42 -5.51 18 -6.71 4.78 -1.61 7.89 -2.04 11.75 -1.65 l5.25 .53&#xA;0 -2.93 c0 -1.61 .45 -2.93 1 -2.93 .55 0 1 1.52 1 3.39 0 3.28 .16 3.41 4.75&#xA;4.08 2.61 .38 6.68 1.54 9.03 2.57 2.35 1.03 6.92 3.95 10.14 6.48 l5.86 4.61&#xA;6.36 -1.15 c3.5 -.63 6.9 -1.6 7.56 -2.15 .66 -.55 1.65 -.73 2.19 -.39 .54&#xA;.33 5 -.69 9.92 -2.27 4.92 -1.58 10.57 -4.12 12.56 -5.64 1.99 -1.52 3.62&#xA;-3.21 3.62 -3.75 0 -.54 1.13 -1.87 2.51 -2.96 1.38 -1.08 5.89 -6.51 10.03&#xA;-12.06 l7.53 -10.09 -3.28 -3.4 c-3.01 -3.11 -3.31 -3.23 -3.6 -1.33 -.18&#xA;1.14 -.57 2.07 -.88 2.07 -1.55 0 -16.44 -9.27 -18.82 -11.72 -1.89 -1.94&#xA;-4.34 -5.97 -5.46 -8.94 -1.11 -2.97 -2.02 -5.99 -2.02 -6.7 0 -.71 1.01&#xA;-2.23 2.25 -3.38 1.24 -1.15 5.85 -4.2 10.25 -6.78 4.4 -2.57 9.24 -5.84&#xA;10.75 -7.27 1.51 -1.42 2.75 -2.97 2.75 -3.43 0 -.46 1.58 -2.23 3.5 -3.92&#xA;3.41 -2.99 3.5 -3.27 3.5 -10.49 0 -6.13 .42 -8.06 2.4 -11.15 1.32 -2.05 7.9&#xA;-10.03 14.62 -17.73 6.72 -7.7 13.17 -14.5 14.35 -15.12 1.17 -.61 5.28 -1.67&#xA;9.13 -2.35 3.85 -.68 8.69 -1.65 10.75 -2.17 3.28 -.82 3.75 -1.32 3.75 -3.9&#xA;0 -1.63 .45 -2.96 1 -2.96 .55 0 1 1.3 1 2.89 l0 2.89 11.25 -2.44 c6.19&#xA;-1.34 12.88 -2.24 14.88 -2.01 1.99 .24 13.48 5.35 25.53 11.37 12.05 6.02&#xA;24.84 12.58 28.42 14.59 l6.52 3.65 7.7 15.56 c4.24 8.56 7.7 16.43 7.7 17.48&#xA;0 1.13 -1.75 3.12 -4.25 4.84 -2.34 1.61 -6.61 5.43 -9.5 8.49 -4.96 5.25&#xA;-5.25 5.85 -5.29 10.87 -.02 2.92 -.62 8.04 -1.34 11.37 -1.13 5.25 -1.98&#xA;6.69 -6.36 10.79 l-5.06 4.73 -.73 17.46 c-.4 9.6 -.94 17.46 -1.2 17.46 -.26&#xA;0 -2.99 -.73 -6.06 -1.62 l-5.59 -1.62 -4.14 4.38 c-2.28 2.41 -4.94 6.63&#xA;-5.93 9.37 -.98 2.75 -4.07 9.83 -6.85 15.74 -2.79 5.91 -5.51 10.75 -6.05&#xA;10.75 -.54 0 -5.82 -2.24 -11.72 -4.98 -5.9 -2.74 -11.94 -5.45 -13.42 -6.01&#xA;-2.4 -.91 -3.04 -.65 -5.86 2.36 -1.74 1.86 -3.71 4.08 -4.38 4.93 -.67 .85&#xA;-2.13 3.04 -3.25 4.87 -1.12 1.83 -2.03 4.12 -2.03 5.1 -0 .97 -1.36 4.77&#xA;-3.03 8.44 -1.66 3.67 -4.92 9.17 -7.24 12.23 -2.32 3.06 -4.9 6.69 -5.73&#xA;8.07 -3.96 6.58 -31.31 46.63 -35.85 52.49 -4.69 6.05 -11.18 14.15 -14.42 18&#xA;-3.24 3.85 -10.02 11.08 -15.07 16.08 -5.04 4.99 -14.8 14.78 -21.67 21.74&#xA;-6.88 6.97 -13.23 12.67 -14.13 12.67 -.9 0 -2.81 -1.54 -4.25 -3.43 -1.44&#xA;-1.89 -4.72 -5.15 -7.28 -7.25 -3.02 -2.47 -4.81 -3.38 -5.08 -2.57 -.23 .69&#xA;-.83 1.25 -1.34 1.25 -.5 0 -.92 -.85 -.92 -1.89 0 -1.04 -.71 -2.17 -1.58&#xA;-2.5 -.87 -.33 -1.99 -.61 -2.5 -.61 -.51 0 -.92 .67 -.92 1.5 0 .83 -.45 1.5&#xA;-1 1.5 -.55 0 -1 -.88 -1 -1.96 0 -1.08 -.84 -2.41 -1.86 -2.96 -1.31 -.7&#xA;-4.09 -.46 -9.45 .81 -4.17 .99 -8.72 2.55 -10.11 3.46 -1.39 .91 -2.74 1.65&#xA;-3.02 1.65 -.27 0 -1.21 -2.36 -2.09 -5.25 -.87 -2.89 -5.12 -18.75 -9.43&#xA;-35.25 -4.31 -16.5 -8.37 -32.3 -9.02 -35.12 -.83 -3.59 -2.23 -6.13 -4.67&#xA;-8.5 l-3.49 -3.38 -20.19 .34 -20.19 .34 -9.82 -3.16 c-5.4 -1.74 -17.55 -6.1&#xA;-27 -9.69 -14.61 -5.55 -18.42 -6.61 -25.43 -7.06 -4.54 -.29 -8.25 -.89&#xA;-8.25 -1.33 0 -.44 -2.76 -7.25 -6.14 -15.12 -3.38 -7.88 -7.37 -17.18 -8.88&#xA;-20.68 -1.51 -3.5 -3.92 -7.54 -5.36 -8.98 -1.44 -1.44 -2.62 -2.07 -2.62&#xA;-1.39 0 .68 -.49 1.23 -1.08 1.23 -.74 0 -.98 -3.79 -.75 -11.81 l.33 -11.81&#xA;3.62 -3.18 c3.5 -3.07 3.64 -3.45 4.13 -11.44 .45 -7.36 .28 -8.51 -1.55&#xA;-10.52 l-2.06 -2.26 2.58 -2.74 c2.5 -2.65 2.6 -3.3 3.29 -19.78 l.71 -17.04&#xA;-13.53 -12.67 -13.53 -12.67 -3.82 1.91 c-2.1 1.05 -8.65 4.18 -14.56 6.96&#xA;-6.39 3 -12.13 5.05 -14.18 5.05 -1.89 0 -4.08 -.64 -4.85 -1.41 -.78 -.78&#xA;-1.98 -2.77 -2.66 -4.42 -.91 -2.19 -1.02 -4.45 -.4 -8.33 l.85 -5.32 13.49&#xA;-6.69 c7.42 -3.68 14.96 -7 16.76 -7.37 1.8 -.38 5.46 -2.66 8.15 -5.07 4.72&#xA;-4.24 4.85 -4.51 4 -8.14 -.48 -2.06 -.88 -4.48 -.9 -5.37 -.02 -1.04 2.6&#xA;-2.89 7.23 -5.13 18.95 -9.17 35.92 -16.74 37.55 -16.74 1.21 0 2.2 .45 2.2 1&#xA;0 .55 1.65 2.82 3.66 5.05 2.78 3.07 4.29 3.98 6.25 3.75 2.11 -.25 2.65 -.9&#xA;2.9 -3.55 .25 -2.58 .87 -3.38 3 -3.89 1.48 -.35 3.18 -1.02 3.78 -1.49 2.56&#xA;-2 13.28 -6.94 14.78 -6.75 1.1 .14 3.07 2.14 4.34 4.37z m294.34 216.53&#xA;c6.38 4.53 10.15 7.89 10.53 9.4 .58 2.33 -1.59 6.44 -16.05 30.32 -3.08 5.09&#xA;-6.03 9.25 -6.56 9.25 -.53 0 -.97 -.79 -.99 -1.75 -.02 -1.32 -.83 -.89&#xA;-3.28 1.75 -1.79 1.92 -5.68 7.55 -8.64 12.5 -2.96 4.95 -12.38 19.58 -20.92&#xA;32.5 -13.9 21.02 -16.77 24.71 -27.17 35 -6.39 6.33 -12.8 12.4 -14.23 13.5&#xA;-1.43 1.1 -10.62 9.42 -20.42 18.5 -9.8 9.08 -21.83 19.88 -26.74 24 -4.91&#xA;4.12 -14.05 11.7 -20.31 16.83 -6.26 5.13 -12.93 9.97 -14.83 10.76 -2.83&#xA;1.18 -3.44 1.97 -3.44 4.42 0 1.95 -.49 2.99 -1.45 2.99 -.8 0 -3.9 -.91&#xA;-6.87 -2.02 -2.96 -1.11 -7.26 -3.74 -9.54 -5.85 -2.29 -2.11 -4.15 -4.75&#xA;-4.15 -5.89 0 -1.14 3.62 -7.17 8.05 -13.41 4.43 -6.24 8.98 -12.13 10.11&#xA;-13.09 1.13 -.96 2.46 -1.75 2.95 -1.75 .49 0 .89 .9 .89 2 0 1.1 .4 2 .89 2&#xA;.49 0 3.53 -1.94 6.75 -4.32 3.22 -2.38 8.03 -6.73 10.68 -9.69 2.65 -2.95&#xA;5.5 -6.68 6.33 -8.28 .83 -1.6 3.14 -4.33 5.15 -6.06 2 -1.73 10.41 -9.27&#xA;18.67 -16.76 8.27 -7.48 19.76 -18.51 25.53 -24.51 5.77 -6 13.65 -14.5 17.5&#xA;-18.9 3.85 -4.39 11.92 -14.96 17.93 -23.49 6.01 -8.53 15.03 -21.35 20.04&#xA;-28.5 5.01 -7.15 12.7 -18.79 17.07 -25.87 4.37 -7.08 9.19 -14.21 10.7&#xA;-15.86 1.51 -1.64 2.75 -4.11 2.75 -5.49 0 -1.84 .41 -2.35 1.54 -1.91 .85&#xA;.33 6.03 3.77 11.5 7.65z m31.88 27.56 c2.41 2.03 2.94 3.11 2.46 5.04 -.49&#xA;1.94 .15 3.19 3.12 6.07 2.05 1.99 5.03 6.53 6.63 10.08 1.59 3.55 3.15 7.48&#xA;3.47 8.73 .31 1.25 1.88 3.53 3.49 5.07 1.61 1.54 2.92 2.26 2.92 1.61 0 -.65&#xA;.36 -1.19 .8 -1.19 .44 0 1.57 2.14 2.5 4.75 .94 2.61 1.7 6.42 1.69 8.47 -0&#xA;2.05 -.75 7.11 -1.66 11.26 -.91 4.14 -2.18 7.53 -2.81 7.53 -.64 0 -2.42&#xA;1.32 -3.96 2.93 -2.3 2.4 -2.83 3.88 -2.94 8.25 -.11 4.49 .71 7.12 5.22&#xA;16.82 3 6.45 6.84 13.03 8.75 14.98 2.55 2.62 3.4 3.05 3.4 1.75 0 -.95 .39&#xA;-1.73 .88 -1.73 .48 0 1.89 2.35 3.13 5.23 l2.25 5.23 -1.73 10.52 c-.95 5.79&#xA;-2.12 13.54 -2.59 17.23 -.74 5.79 -1.33 7.15 -4.31 10 -3.05 2.91 -3.53 4.07&#xA;-4.1 9.89 l-.64 6.59 3.74 3.29 3.74 3.29 4.45 -4.71 c3.46 -3.67 4.94 -4.58&#xA;6.68 -4.14 1.23 .31 4.12 2.39 6.42 4.62 3.32 3.22 7.37 10.5 19.64 35.26 8.5&#xA;17.16 15.45 31.98 15.45 32.93 0 .97 -.99 1.97 -2.25 2.27 -1.24 .29 -11.51&#xA;.42 -22.82 .27 l-20.57 -.27 -4.19 -2.78 c-2.31 -1.53 -9.99 -7.93 -17.07&#xA;-14.22 -7.08 -6.29 -14.94 -14.19 -17.46 -17.55 -2.52 -3.36 -5.08 -7.98&#xA;-5.67 -10.28 -.6 -2.3 -1.73 -6.46 -2.51 -9.25 -.8 -2.84 -6.48 -13.27 -12.87&#xA;-23.67 -6.29 -10.23 -12.33 -20.34 -13.42 -22.48 -1.09 -2.14 -4.14 -6.29&#xA;-6.78 -9.22 l-4.79 -5.33 -4.54 4.94 c-3.76 4.1 -5.76 8 -11.74 22.89 -4.66&#xA;11.63 -7.92 21.52 -9.25 28.1 -1.13 5.59 -2.05 11.37 -2.05 12.84 0 2.62 -.12&#xA;2.67 -4.75 2.11 -2.61 -.32 -14.2 -1.72 -25.75 -3.12 -11.55 -1.4 -22.01&#xA;-2.77 -23.25 -3.04 -1.96 -.43 -2.25 -.09 -2.25 2.62 l0 3.11 -5.25 -.66&#xA;c-2.89 -.36 -12.43 -1.76 -21.19 -3.09 -8.77 -1.34 -16.87 -2.45 -18 -2.46&#xA;-1.13 -.02 -2.9 -.7 -3.91 -1.46 -1.33 -1 -1.57 -1.82 -.9 -3 .51 -.9 4.52&#xA;-4.65 8.92 -8.32 4.4 -3.67 15.03 -12.63 23.6 -19.9 8.57 -7.27 15.88 -13.68&#xA;16.23 -14.25 .35 -.57 1.06 -1.03 1.58 -1.03 .52 0 .94 .91 .94 2.02 0 1.79&#xA;.57 1.6 5.12 -1.75 2.82 -2.07 6.86 -5.57 8.99 -7.77 2.13 -2.2 12.83 -13.22&#xA;23.77 -24.5 17.2 -17.72 21.09 -22.33 28.66 -34 4.82 -7.42 13.01 -19.94&#xA;18.21 -27.82 5.2 -7.88 12.24 -18.9 15.66 -24.5 3.42 -5.6 8.89 -14.34 12.15&#xA;-19.43 3.27 -5.09 6.5 -9.25 7.19 -9.25 .69 -0 1.25 -1.13 1.25 -2.5 0 -1.38&#xA;.42 -2.5 .92 -2.5 .51 0 2.31 1.16 4 2.59z m277.08 37.89 c0 2.13 -2.93 10.21&#xA;-7.56 20.86 -4.16 9.56 -9.22 20.69 -11.25 24.72 -3.44 6.84 -4.5 7.96 -15.69&#xA;16.62 -7.9 6.11 -12.64 9.14 -13.87 8.86 -1.25 -.28 -11.15 6.37 -30 20.18&#xA;-15.47 11.33 -32.75 23.96 -38.41 28.08 -5.65 4.11 -10.55 7.21 -10.87 6.88&#xA;-.33 -.33 3.17 -5.36 7.78 -11.19 4.6 -5.83 11.02 -14.06 14.27 -18.29 3.24&#xA;-4.24 14.68 -19.18 25.41 -33.2 10.73 -14.03 21.34 -27.75 23.58 -30.5 2.23&#xA;-2.75 4.91 -5.62 5.94 -6.38 1.34 -.98 1.72 -2.15 1.34 -4.09 -.53 -2.66 -.04&#xA;-2.96 23.14 -14.37 13.02 -6.41 24.25 -11.66 24.94 -11.66 .78 0 1.26 1.34&#xA;1.26 3.48z m-130.71 22.54 c.32 1.24 -.23 8.09 -1.3 14.97 -1.08 6.88 -2.36&#xA;13.86 -2.86 15.51 -.5 1.65 -1.89 5.25 -3.09 8 -1.2 2.75 -3.13 6.03 -4.13&#xA;7.13 -1 1.1 -2.01 3 -2.4 4.37 -.4 1.38 -2.77 6.1 -5.27 10.5 -2.5 4.4 -5.38&#xA;9.07 -6.39 10.38 -1.02 1.31 -1.85 2.97 -1.85 3.69 0 .72 -2.64 6.05 -5.87&#xA;11.85 -3.23 5.8 -6.43 11.23 -7.12 12.06 -.69 .83 -1.72 1.51 -2.29 1.51 -.71&#xA;0 -.84 -4.23 -.42 -13.53 .34 -7.44 .92 -14.02 1.34 -14.69 .42 -.67 .9 -4.43&#xA;1.01 -8.28 .11 -3.85 .96 -12.4 1.88 -19 .92 -6.6 1.82 -13.03 1.94 -14.45&#xA;.13 -1.42 .83 -3.66 1.63 -4.8 .8 -1.14 4.8 -4.65 8.9 -7.82 4.11 -3.17 10.97&#xA;-8.85 15.24 -12.6 4.27 -3.75 8.38 -6.83 9.13 -6.83 .76 0 1.58 .79 1.9 2.02z&#xA;m-355.36 43.44 c1.56 .81 3.98 2.83 5.39 4.5 1.45 1.72 2.85 4.95 3.22 7.44&#xA;.36 2.42 .35 5.8 -.02 7.51 -.38 1.71 -2.12 4.56 -3.87 6.34 -1.82 1.85&#xA;-11.32 7.94 -14.9 9.56 -.41 .19 -.75 -.68 -.75 -1.93 l0 -2.27 -2.87 2.75&#xA;c-1.58 1.51 -6.66 8.01 -11.3 14.44 -4.64 6.43 -10.73 14.9 -13.52 18.81 -2.8&#xA;3.92 -5.38 8.03 -5.73 9.14 -.48 1.51 .59 3.36 4.27 7.38 2.7 2.95 9 8.29 14&#xA;11.86 6.67 4.76 9.11 7.09 9.13 8.69 .02 1.21 -1.05 3.45 -2.37 4.98 l-2.4&#xA;2.79 -4.94 -4.48 c-2.72 -2.47 -7.72 -6.67 -11.11 -9.34 -3.4 -2.67 -9.43&#xA;-7.88 -13.41 -11.57 -3.98 -3.69 -7.93 -6.97 -8.77 -7.28 -.84 -.31 -5.34&#xA;-3.46 -10 -6.99 -4.66 -3.54 -11.28 -8.33 -14.71 -10.65 -6.25 -4.22 -6.25&#xA;-4.22 -6.25 -1.68 0 1.4 -.47 2.54 -1.05 2.54 -.58 0 -2.27 -.63 -3.75 -1.4&#xA;-1.49 -.77 -3.56 -2.35 -4.61 -3.5 -1.51 -1.67 -1.69 -2.57 -.88 -4.35 .56&#xA;-1.24 2.9 -4.61 5.18 -7.5 2.29 -2.89 4.64 -5.25 5.24 -5.25 .6 0 .83 .65 .53&#xA;1.44 -.37 .97 3.97 5.18 13.14 12.77 7.53 6.23 14.89 12.08 16.34 13.01 l2.64&#xA;1.69 5.36 -5.85 c2.95 -3.21 8.17 -9 11.61 -12.86 3.44 -3.86 6.25 -7.47 6.25&#xA;-8.03 0 -.56 2.15 -3.41 4.78 -6.34 2.63 -2.93 6.54 -7.93 8.69 -11.11 3.31&#xA;-4.89 3.87 -6.48 3.67 -10.35 -.14 -2.78 .36 -5.48 1.29 -6.9 .84 -1.28 2.44&#xA;-2.62 3.55 -2.97 1.43 -.45 2.03 -1.51 2.03 -3.58 0 -2.76 .24 -2.93 4.05&#xA;-2.93 2.23 0 5.32 .66 6.88 1.46z m443.07 73.18 c4.12 .83 9.75 1.88 12.5&#xA;2.32 2.75 .44 8.71 1.8 13.25 3.03 4.54 1.23 8.25 2.56 8.25 2.96 0 .4 -.79&#xA;1.45 -1.75 2.32 -.96 .87 -5.88 3.5 -10.83 5.79 -4.95 2.29 -12.35 5.89&#xA;-16.55 8.04 -5.71 2.93 -9.61 4.16 -15.5 4.9 -4.33 .54 -22.16 1.1 -39.62&#xA;1.24 -17.46 .14 -31.75 0 -31.75 -.31 0 -.32 3.99 -2.68 8.87 -5.25 4.88&#xA;-2.57 9.66 -4.68 10.61 -4.68 .95 0 2.96 -.89 4.48 -1.97 1.53 -1.09 10.33&#xA;-5.37 19.58 -9.53 9.24 -4.15 18.76 -8.05 21.15 -8.65 2.39 -.6 4.61 -1.53&#xA;4.94 -2.06 .35 -.57 1.47 -.69 2.73 -.31 1.18 .36 5.51 1.33 9.64 2.17z&#xA;m-518.5 17.84 c3.85 3 8.58 6.53 10.5 7.86 1.92 1.32 5.64 4.3 8.25 6.62 3&#xA;2.66 4.75 5 4.75 6.41 0 1.23 -2.16 5.39 -4.8 9.2 -2.64 3.81 -9.68 13.16&#xA;-15.6 20.86 -5.92 7.7 -11.16 14.22 -11.67 14.4 -.51 .18 -.93 -.69 -.93&#xA;-1.94 0 -2.22 -.07 -2.2 -3.09 .67 -1.7 1.62 -7.1 8.4 -12 15.08 -4.9 6.68&#xA;-9.52 12.38 -10.27 12.66 -.75 .29 -4.91 .22 -9.25 -.14 -4.34 -.36 -8.91&#xA;-.52 -10.14 -.34 -1.77 .25 -2.25 .97 -2.25 3.34 l0 3.02 -14.92 -.34 c-8.21&#xA;-.19 -15.21 -.64 -15.6 -1.02 -.39 -.39 .43 -2.66 1.84 -5.02 1.41 -2.36 8.56&#xA;-12.13 15.87 -21.71 7.32 -9.58 13.86 -17.6 14.55 -17.83 .69 -.23 1.25 .38&#xA;1.25 1.34 0 1.51 .37 1.41 2.63 -.67 1.45 -1.33 7.97 -9.5 14.5 -18.15 6.53&#xA;-8.65 15.25 -20.04 19.37 -25.31 4.65 -5.95 7.5 -10.51 7.5 -12.03 0 -1.34&#xA;.56 -2.43 1.25 -2.42 .69 .01 4.4 2.47 8.25 5.47z m93.48 20.51 c2.89 .55&#xA;11.16 1.87 18.39 2.95 7.22 1.07 24.16 3.34 37.63 5.03 13.48 1.69 30.51 3.97&#xA;37.85 5.05 7.34 1.09 13.98 1.98 14.75 1.98 .85 0 1.4 -1.04 1.4 -2.64 0&#xA;-2.61 .07 -2.63 5.75 -2.12 3.16 .29 7.67 .98 10 1.68 3.29 .99 4.25 1.88&#xA;4.25 3.55 0 1.18 -1.29 5.98 -2.87 10.65 -1.58 4.67 -3.49 9.48 -4.24 10.69&#xA;-1.19 1.9 -2.25 2.19 -8.13 2.19 l-6.76 0 0 -3 0 -3 -53.3 0 -53.3 0 -3.95&#xA;4.05 -3.95 4.05 -.34 10.95 -.34 10.95 -4.16 .1 c-8.55 .2 -71.16 -.26 -71.42&#xA;-.52 -.27 -.27 .63 -2.41 2 -4.78 1.36 -2.36 2.78 -5.54 3.14 -7.05 .36 -1.52&#xA;2.67 -6.15 5.12 -10.3 2.45 -4.15 6.55 -10.26 9.1 -13.57 2.55 -3.31 5.22&#xA;-6.25 5.94 -6.52 .72 -.28 2.35 .06 3.63 .74 1.28 .68 4.35 2.92 6.83 4.96&#xA;2.48 2.05 5.89 4.43 7.59 5.28 l3.09 1.55 5.51 -5.69 c3.03 -3.13 7.69 -8.62&#xA;10.35 -12.19 2.66 -3.58 6.6 -8.64 8.74 -11.25 2.15 -2.61 4.48 -4.75 5.18&#xA;-4.75 .7 0 3.63 .45 6.52 1z m58.02 63.84 l0 2.84 71.75 .47 c39.46 .26 77.15&#xA;.4 83.75 .31 6.6 -.08 20.44 -.22 30.75 -.31 l18.75 -.15 0 -3 c0 -2.33 .44&#xA;-3 2 -3 1.56 0 2 .67 2 3 l0 3 18.5 0 18.5 0 0 -3 c0 -1.65 .45 -3 1 -3 .55 0&#xA;1 1.3 1 2.89 0 2.52 .45 2.97 3.59 3.56 1.97 .37 7.15 .36 11.5 -.02 7.89&#xA;-.69 7.91 -.7 7.91 -3.56 0 -1.58 .45 -2.87 1 -2.87 .55 0 1 1.32 1 2.93 l0&#xA;2.93 134.25 .32 c75.39 .18 134.8 -.06 135.5 -.55 .69 -.48 1.25 -1.74 1.25&#xA;-2.81 0 -1.66 .61 -1.89 4.25 -1.63 l4.25 .31 0 36.42 0 36.42 -4.41 2.33&#xA;c-2.42 1.28 -4.79 2.33 -5.25 2.33 -.46 0 -.84 -1.1 -.84 -2.44 l0 -2.44&#xA;-9.75 4.24 c-5.36 2.33 -23.7 9.76 -40.75 16.51 -17.05 6.75 -33.25 13.2 -36&#xA;14.34 -2.75 1.14 -13.55 5.55 -24 9.79 -10.45 4.24 -22.38 9.23 -26.5 11.08&#xA;-4.12 1.85 -10.88 5.13 -15 7.28 -4.12 2.15 -10.66 6.08 -14.52 8.74 -3.86&#xA;2.66 -14.21 10.67 -23 17.81 -8.79 7.14 -18.45 15.17 -21.48 17.84 -3.03 2.68&#xA;-8.65 7.37 -12.5 10.43 -3.85 3.06 -10.6 9.37 -15 14.01 -4.4 4.64 -9.46&#xA;10.29 -11.25 12.55 -1.79 2.26 -3.25 4.74 -3.25 5.52 0 .78 -1.8 5.72 -4&#xA;10.98 l-4 9.57 .02 20.83 c.02 19.85 .14 21.12 2.5 26.83 1.36 3.3 2.47 6.5&#xA;2.48 7.1 0 .61 2.18 3.98 4.85 7.5 2.66 3.52 7.64 8.99 11.06 12.15 3.42 3.16&#xA;18 14.58 32.4 25.37 14.41 10.79 27.54 20.87 29.19 22.4 1.65 1.53 7.72 4.81&#xA;13.5 7.3 5.78 2.48 13.39 5.68 16.92 7.1 3.53 1.42 6.79 2.59 7.25 2.59 .46 0&#xA;.83 -1.12 .83 -2.5 0 -1.38 .38 -2.5 .85 -2.5 .46 0 1.69 .94 2.73 2.08 1.28&#xA;1.42 2.1 4.37 2.57 9.25 .38 3.94 1.16 10.77 1.73 15.17 .58 4.4 1.72 13.4&#xA;2.53 20 .82 6.6 2.23 17.56 3.14 24.35 .91 6.79 1.12 12.89 .65 13.31 -.47&#xA;.42 -4.19 .86 -8.45 1.2 l-7.75 .62 0 -2.95 0 -2.95 -65.93 -.28 -65.93 -.28&#xA;-2.82 -2.27 c-1.55 -1.25 -5.52 -4.34 -8.82 -6.86 -3.3 -2.52 -8.47 -5.83&#xA;-11.5 -7.34 -3.03 -1.52 -10.22 -4.12 -16 -5.8 -5.78 -1.67 -14.78 -4.2 -20&#xA;-5.61 -5.23 -1.41 -17.09 -4.38 -26.36 -6.6 -9.28 -2.21 -18.27 -4.03 -19.98&#xA;-4.03 -1.71 0 -15.5 2.93 -30.64 6.51 -15.14 3.58 -32.25 7.81 -38.02 9.39&#xA;-5.77 1.59 -12.17 3.52 -14.21 4.3 -2.04 .78 -7.03 4.71 -11.1 8.74 -4.06&#xA;4.03 -8.47 7.93 -9.79 8.66 -1.93 1.07 -15.74 1.34 -70.65 1.37 l-68.25 .04 0&#xA;3 c0 2.74 -.29 3 -3.39 3 -2.3 0 -3.61 -.56 -4.06 -1.74 -.37 -.95 .05 -17.04&#xA;.93 -35.75 .88 -18.71 2.03 -35.64 2.56 -37.63 .53 -1.99 .97 -4.47 .97 -5.44&#xA;0 -.98 .77 -2.32 1.73 -3.05 .96 -.73 2.09 -1.34 2.5 -1.36 .41 -.02 .75 1.14&#xA;.75 2.58 0 2.08 .35 2.47 1.75 1.9 .96 -.39 4.45 -1.61 7.75 -2.72 3.3 -1.11&#xA;8.25 -3.05 11 -4.31 2.75 -1.26 9.73 -4.57 15.5 -7.35 6.85 -3.31 15.71 -8.93&#xA;25.5 -16.19 8.25 -6.12 20.62 -15 27.5 -19.74 6.88 -4.74 15.13 -11.11 18.35&#xA;-14.16 3.22 -3.05 6.91 -7.34 8.19 -9.54 1.49 -2.54 2.91 -7.65 3.91 -14 .86&#xA;-5.5 2 -12.03 2.53 -14.5 .53 -2.47 1.44 -9.07 2.03 -14.66 .95 -9.03 .86&#xA;-10.78 -.78 -15.62 -1.01 -3 -4.29 -9.44 -7.29 -14.32 -7 -11.39 -21.98&#xA;-26.65 -30.59 -31.17 -3.38 -1.77 -6.41 -3.23 -6.75 -3.23 -.34 0 -.61 .71&#xA;-.61 1.58 0 .87 -.56 1.4 -1.25 1.17 -.69 -.23 -1.39 -1.36 -1.56 -2.52 -.26&#xA;-1.76 -2.64 -2.86 -14.56 -6.71 -7.94 -2.57 -15 -4.32 -15.95 -3.96 -1.59 .61&#xA;-1.66 -5 -1.14 -89.65 .54 -88.09 .6 -90.33 2.51 -91.67 1.07 -.75 1.95 -2.02&#xA;1.95 -2.81 0 -1.18 2.2 -1.44 11.92 -1.44 6.56 0 12.63 -.27 13.5 -.61 .94&#xA;-.36 1.58 -1.78 1.58 -3.5 0 -1.9 .51 -2.89 1.5 -2.89 .98 0 1.5 .98 1.5 2.84z&#xA;m-289 31.16 l0 3 31 0 31 0 0 -3 0 -3 7.5 0 7.5 0 0 2.85 0 2.85 12.16 .65&#xA;c6.69 .36 16.81 .65 22.5 .65 l10.34 0 0 -3 c0 -2.93 .11 -3 5 -3 4.89 0 5&#xA;.07 5 3 l0 3 20.4 0 20.4 0 .7 6.06 c.5 4.34 1.24 6.39 2.6 7.24 1.17 .73 1.9&#xA;2.34 1.91 4.19 .01 1.66 .72 7.06 1.58 12.01 .86 4.95 1.88 11.98 2.26 15.61&#xA;.52 4.96 1.38 7.51 3.42 10.18 1.5 1.96 2.72 4.25 2.72 5.08 0 .83 .5 1.82&#xA;1.11 2.19 .61 .38 2.6 -.83 4.43 -2.69 l3.33 -3.38 1.26 -28.62 1.26 -28.62&#xA;6.56 -.62 c3.61 -.34 9.76 -.62 13.68 -.63 l7.13 -.01 .54 8.75 c.3 4.81 1.66&#xA;17.53 3.02 28.25 1.36 10.72 3.69 27.38 5.16 37 l2.68 17.5 3.75 3.5 c3.01&#xA;2.81 3.9 4.49 4.47 8.5 1.14 7.94 4.87 37.47 5.26 41.61 .43 4.53 .22 6.86&#xA;-.57 7.35 -.64 .39 -2.46 .4 -4.09 .04 -2.44 -.54 -2.98 -1.16 -2.98 -3.47 0&#xA;-2.68 -.31 -2.87 -6.35 -3.92 -3.49 -.61 -14.63 -2.23 -24.75 -3.6 -10.12&#xA;-1.37 -19.87 -2.74 -21.65 -3.04 -3.1 -.52 -3.25 -.4 -3.25 2.63 0 3.11 -.07&#xA;3.16 -3.75 2.56 -2.06 -.34 -4.51 -.62 -5.44 -.63 -1.17 -.01 -1.78 -1.01 -2&#xA;-3.26 l-.31 -3.25 -9 -1.29 c-4.95 -.71 -14.18 -2.15 -20.5 -3.19 -6.33 -1.04&#xA;-12.29 -2.2 -13.25 -2.56 -1.22 -.47 -1.75 -.18 -1.75 .94 0 .88 -.3 1.61&#xA;-.66 1.61 -.36 0 -2.61 -1.14 -5 -2.54 -2.5 -1.47 -4.34 -3.28 -4.34 -4.3 0&#xA;-1.27 -4.65 -4.11 -16.67 -10.21 -9.17 -4.65 -18.73 -9.91 -21.25 -11.7 -2.52&#xA;-1.79 -5.14 -3.25 -5.83 -3.25 -.69 0 -1.25 .67 -1.25 1.5 0 .83 -.27 1.5 -.6&#xA;1.5 -.33 0 -3.71 -1.63 -7.5 -3.62 -4.34 -2.28 -6.9 -4.25 -6.9 -5.3 0 -1.16&#xA;-5.33 -4.36 -17.51 -10.51 -12.46 -6.29 -18.65 -10.03 -21.48 -12.95 -2.19&#xA;-2.26 -8.52 -9.74 -14.07 -16.61 -14.88 -18.42 -33.77 -42.16 -36.62 -46&#xA;-3.48 -4.7 -4 -6.04 -3.59 -9.25 l.48 -3.75 15.39 0 15.39 0 0 3z m-11.17&#xA;70.41 c1.74 2.43 3.17 4.82 3.17 5.31 0 .49 2.52 3.32 5.61 6.29 3.08 2.97&#xA;6.73 6.87 8.11 8.68 l2.5 3.28 -2.73 4.66 c-1.5 2.57 -5.52 7.45 -8.93 10.87&#xA;-5.07 5.07 -8.65 7.42 -19.62 12.86 -7.38 3.66 -14.85 6.93 -16.61 7.26 -2.74&#xA;.52 -3.13 .35 -2.79 -1.25 .22 -1.02 1.13 -6.36 2.04 -11.86 .91 -5.5 2.31&#xA;-12.68 3.13 -15.96 .81 -3.28 2.17 -7.33 3.01 -9 .84 -1.67 5.31 -8.11 9.93&#xA;-14.29 4.62 -6.19 8.77 -11.25 9.22 -11.25 .45 0 2.24 1.99 3.98 4.41z&#xA;m216.58 100.65 c.5 .47 1.09 3.47 1.31 6.65 .22 3.18 1.04 13.59 1.82 23.12&#xA;1.24 15.05 1.24 17.68 -.01 20.1 -.79 1.53 -4.56 5.54 -8.37 8.92 -3.81 3.38&#xA;-7.21 6.15 -7.55 6.15 -.34 0 -.62 -.73 -.62 -1.62 0 -1.49 -.22 -1.48 -2.75&#xA;.13 -1.51 .96 -4.02 2.92 -5.58 4.37 -1.56 1.44 -4.75 5.55 -7.09 9.12 -2.34&#xA;3.58 -6.3 10.1 -8.8 14.5 -2.5 4.4 -8.65 16.21 -13.66 26.24 -5.41 10.82&#xA;-9.12 19.46 -9.12 21.24 0 4.09 -8.74 21.43 -11.39 22.6 -1.2 .53 -4.15 4.81&#xA;-6.84 9.93 -2.6 4.95 -5.22 10.76 -5.83 12.91 -.88 3.12 -.77 5.24 .55 10.49&#xA;.91 3.62 3.01 9.85 4.67 13.83 1.73 4.17 4.9 9.34 7.45 12.18 2.44 2.71 7.53&#xA;7.22 11.31 10.03 3.78 2.8 7.15 5.8 7.48 6.66 .33 .86 .6 5.06 .6 9.35 l0&#xA;7.79 -27.25 .49 c-14.99 .27 -31.56 .13 -36.82 -.31 -5.26 -.44 -11.45 -1.45&#xA;-13.75 -2.24 -4.14 -1.43 -4.18 -1.42 -4.18 .94 0 1.31 -.47 2.38 -1.05 2.38&#xA;-.58 0 -2.4 -.7 -4.06 -1.56 -1.66 -.86 -4.77 -3.14 -6.94 -5.1 -3.11 -2.81&#xA;-3.96 -4.41 -3.96 -7.09 0 -1.87 1.14 -8.1 2.53 -14 1.39 -5.91 5.04 -18.28&#xA;8.11 -27.49 3.07 -9.21 5.98 -16.75 6.47 -16.75 .49 0 .89 .55 .89 1.23 0 .68&#xA;1.36 -.12 3.01 -1.78 2.03 -2.03 4.15 -6.3 6.53 -13.16 2.65 -7.63 3.74&#xA;-12.84 4.41 -20.97 .49 -5.95 1.18 -22.52 1.55 -36.82 .36 -14.3 1.01 -30.97&#xA;1.45 -37.05 .47 -6.58 1.42 -12.25 2.34 -14 .85 -1.62 6.28 -8.57 12.06&#xA;-15.45 5.78 -6.88 12.75 -14.97 15.49 -18 l4.97 -5.5 3.59 3.45 c2.69 2.58&#xA;3.59 3.02 3.59 1.75 0 -.93 .41 -1.7 .91 -1.7 .5 0 3.42 4.3 6.5 9.56 3.08&#xA;5.26 5.59 10.18 5.59 10.94 0 .76 .38 1.62 .85 1.91 .47 .29 2.08 -.76 3.58&#xA;-2.33 l2.73 -2.85 -.72 -11.68 c-.47 -7.68 -1.19 -12.15 -2.08 -13.04 -.95&#xA;-.95 -1.36 -4.14 -1.36 -10.56 l0 -9.2 8.25 .7 c4.54 .38 14.77 1.56 22.75&#xA;2.62 7.98 1.06 14.61 1.93 14.75 1.93 .14 0 .25 -1.39 .25 -3.09 l0 -3.09&#xA;5.25 .7 c2.89 .38 5.66 1.08 6.16 1.56z" fill="#30373d" fill-rule="evenodd" stroke="#30373d" stroke-linejoin="round" stroke-width="0.80"/>
<path d="M687.8 552.53 c-.29 .29 -5.46 1.36 -11.48 2.37 -6.02 1.01 -13.06 2.78&#xA;-15.65 3.92 -2.58 1.14 -8.48 4.83 -13.12 8.2 -4.63 3.37 -8.93 6.73 -9.55&#xA;7.47 -.77 .93 -.82 1.69 -.2 2.94 .5 1.01 1.82 4.76 2.97 8.06 1.14 3.3 3.84&#xA;10.28 5.99 15.5 2.15 5.22 5.12 12.04 6.59 15.15 1.48 3.11 3.24 6.1 4.03&#xA;6.76 1.16 .96 2.68 .38 7.53 -3.35 3.31 -2.54 12.21 -8.48 19.79 -13.2 7.58&#xA;-4.71 16.81 -11.01 20.51 -13.99 3.7 -2.98 7.17 -6.24 7.71 -7.25 .77 -1.45&#xA;-.09 -3.57 -4.12 -10.12 -2.8 -4.56 -8.24 -11.6 -12.09 -15.64 -3.84 -4.05&#xA;-7.3 -7.35 -7.69 -7.35 -.39 0 -.95 .24 -1.24 .53z M527.28 591.75 c-.36 .96&#xA;-1.36 2.28 -2.22 2.92 -.86 .65 -2.77 1.42 -4.24 1.71 -2.3 .46 -2.78 1.19&#xA;-3.36 5.08 -.37 2.5 -1.01 4.54 -1.42 4.54 -.41 0 -3.75 2.75 -7.42 6.12&#xA;-6.46 5.92 -6.74 6.06 -8.63 4.36 -1.54 -1.39 -2.93 -1.63 -6.66 -1.11 -2.73&#xA;.37 -5.68 1.55 -7 2.8 -1.26 1.18 -2.57 3.66 -2.92 5.51 -.36 1.9 -.09 4.65&#xA;.61 6.34 .68 1.64 1.42 2.98 1.65 2.98 .23 0 1.73 -.97 3.34 -2.16 1.61 -1.19&#xA;4.49 -2.21 6.41 -2.28 2.1 -.07 4.43 -1.01 5.85 -2.34 1.3 -1.22 2.72 -2.22&#xA;3.16 -2.22 .44 0 3.38 2.24 6.54 4.97 l5.74 4.97 5.4 -2.05 c2.97 -1.13 6.17&#xA;-2.29 7.11 -2.58 1.18 -.36 4.88 2.41 11.83 8.83 l10.12 9.36 -.64 15 c-.35&#xA;8.25 -1.33 22.88 -2.17 32.5 -.84 9.62 -1.75 22.9 -2.04 29.5 -.48 11.12 -.33&#xA;12.48 2.01 18.5 1.39 3.58 5.19 12.58 8.44 20 3.25 7.42 6.71 15.62 7.69 18.2&#xA;.98 2.59 2.67 5.51 3.75 6.49 1.41 1.28 4.44 1.98 10.63 2.47 7.26 .57 11.42&#xA;1.73 25.84 7.19 9.45 3.58 21.6 7.93 27 9.67 l9.82 3.16 20.49 -.34 20.49&#xA;-.34 1.27 5 c4.44 17.49 15.25 58.82 17.39 66.5 2.23 7.97 4.65 15.13 5.38&#xA;15.89 1.13 1.19 2.05 1.02 6.15 -1.12 2.65 -1.38 7.94 -3.22 11.75 -4.08 4.5&#xA;-1.02 7.34 -1.39 8.46 -.79 1.33 .71 2.17 .74 3.04 -.31 .62 -.75 1.41 -4.38&#xA;1.76 -8.07 l.63 -6.71 3.1 .58 c1.7 .32 7.82 1.3 13.6 2.18 9.56 1.46 10.95&#xA;1.46 15.52 .03 3.39 -1.06 6.46 -3.04 9.46 -6.09 l4.44 -4.53 -6.34 -6.39&#xA;c-3.48 -3.52 -9.88 -9.03 -14.21 -12.24 -4.42 -3.28 -7.88 -6.59 -7.88 -7.54&#xA;-0 -.93 -.45 -1.97 -1 -2.31 -.55 -.34 -2.18 -3.18 -3.62 -6.31 -1.44 -3.13&#xA;-5.47 -14.31 -8.95 -24.85 -3.48 -10.53 -7.62 -22.01 -9.21 -25.51 -1.59 -3.5&#xA;-5.97 -10.18 -9.75 -14.85 -3.78 -4.67 -10.45 -12.44 -14.83 -17.26 l-7.97&#xA;-8.77 -2.43 2.27 c-1.34 1.25 -2.84 3.03 -3.34 3.96 -.64 1.19 -.05 3.54 2.01&#xA;8 1.61 3.47 3.19 7.44 3.51 8.82 .32 1.38 .25 3.01 -.17 3.63 -.55 .82 -3.26&#xA;.92 -9.88 .36 -5.02 -.42 -16.72 -2.17 -26 -3.89 -9.28 -1.72 -19.79 -3.76&#xA;-23.34 -4.53 -6.4 -1.38 -6.49 -1.37 -9.49 1.16 -2.94 2.48 -3.34 2.53 -13.64&#xA;1.99 -6.15 -.32 -12.19 -1.22 -14.38 -2.14 -2.08 -.87 -5.06 -1.58 -6.63&#xA;-1.58 -2.3 0 -2.98 -.54 -3.49 -2.75 -.35 -1.51 -1.68 -7.03 -2.97 -12.25&#xA;-1.29 -5.23 -3.68 -15.8 -5.32 -23.5 -1.64 -7.7 -4.6 -23.9 -6.58 -36 -1.99&#xA;-12.1 -4.52 -26.49 -5.64 -31.98 -1.69 -8.31 -2.61 -10.69 -5.54 -14.26 -1.93&#xA;-2.36 -3.37 -4.65 -3.18 -5.09 .18 -.44 5.32 -5.4 11.43 -11.02 6.11 -5.62&#xA;12.57 -12.26 14.37 -14.76 l3.27 -4.55 -3.37 -3.49 c-1.85 -1.92 -4.81 -4.38&#xA;-6.57 -5.47 -3.08 -1.91 -3.32 -1.92 -6.3 -.38 -2.19 1.13 -5.94 1.62 -12.8&#xA;1.66 -5.34 .03 -12.4 -.44 -15.7 -1.05 -3.3 -.61 -9.15 -2 -13 -3.1 -3.85&#xA;-1.1 -7.12 -2 -7.28 -2 -.16 0 -.58 .79 -.94 1.75z M858.23 689.41 c-2.83&#xA;2.56 -4.15 4.68 -4.58 7.35 -.33 2.07 -1.51 5.64 -2.63 7.95 -1.11 2.31 -2.03&#xA;5.91 -2.03 7.99 -0 2.09 -.45 6.5 -1 9.8 -.55 3.3 -.97 10.95 -.95 17 .03&#xA;6.05 .15 12.12 .28 13.5 .13 1.38 .79 3.51 1.49 4.75 .94 1.68 1 2.74 .22&#xA;4.18 -.57 1.06 -1.04 3.47 -1.04 5.34 0 2.88 .99 4.36 6.41 9.57 3.53 3.39&#xA;7.32 6.16 8.42 6.16 1.1 0 2.71 .27 3.58 .6 .99 .38 1.83 -.08 2.27 -1.25 .38&#xA;-1.02 2.48 -4.1 4.67 -6.85 2.18 -2.75 5.47 -8.23 7.31 -12.18 1.84 -3.95&#xA;3.34 -7.94 3.34 -8.85 0 -.92 1.24 -3.87 2.75 -6.56 1.68 -3 3.5 -4.9 4.59&#xA;-4.9 .98 -0 2.01 -.75 2.36 -1.66 .46 -1.21 -1.73 -3.87 -8.01 -9.75 -6.81&#xA;-6.37 -9.43 -9.65 -12.3 -15.41 -2.01 -4.03 -3.86 -9.43 -4.12 -12 -.26 -2.57&#xA;-.42 -6.27 -.36 -8.22 .08 -2.8 -.61 -4.24 -3.3 -6.84 l-3.4 -3.3 -3.98 3.59z&#xA;M928.2 848.3 c-2.12 2.18 -3.2 4.29 -3.21 6.25 -.01 1.62 -.88 6.33 -1.94&#xA;10.45 -1.06 4.12 -3.42 11.82 -5.23 17.1 -2.14 6.2 -4.13 10.21 -5.62 11.34&#xA;-1.27 .96 -7.13 3.55 -13 5.75 -5.88 2.2 -11.88 4.23 -13.35 4.51 -1.46 .28&#xA;-3.91 1.81 -5.44 3.4 l-2.78 2.9 2.33 4.25 c1.28 2.34 3.61 5.62 5.19 7.3&#xA;1.57 1.68 2.86 3.9 2.86 4.94 0 1.04 .93 2.87 2.06 4.08 1.37 1.46 2.21 3.98&#xA;2.5 7.54 .31 3.73 1.08 5.96 2.56 7.37 1.5 1.44 2.18 1.81 2.51 .92 .26 -.69&#xA;1.08 -1.4 1.75 -1.4 .67 0 2.24 1.69 3.48 3.75 1.25 2.06 7.8 12.85 14.57&#xA;23.97 8.88 14.6 13.19 22.8 15.51 29.5 1.77 5.1 4.37 11.28 5.79 13.72 1.41&#xA;2.44 4.42 6.45 6.67 8.91 2.25 2.46 10.02 9.77 17.27 16.25 7.24 6.47 15.09&#xA;13.04 17.43 14.59 4.13 2.73 4.66 2.82 17.33 2.8 l13.07 -.02 -.28 -4.37&#xA;c-.24 -3.77 -1.35 -5.69 -8.04 -13.98 -4.27 -5.29 -8.53 -11.27 -9.48 -13.29&#xA;-.95 -2.02 -4.65 -6.25 -8.22 -9.39 -3.58 -3.14 -8.75 -8.56 -11.49 -12.05&#xA;-2.74 -3.49 -4.98 -6.97 -4.98 -7.73 0 -.76 -.87 -2.5 -1.94 -3.85 -1.22&#xA;-1.55 -1.92 -3.95 -1.88 -6.48 .03 -2.21 -.65 -6.45 -1.52 -9.42 -.87 -2.97&#xA;-3.13 -7.99 -5.04 -11.15 -1.9 -3.16 -5.54 -8.47 -8.07 -11.8 -2.54 -3.33&#xA;-5.89 -9.3 -7.45 -13.26 -1.56 -3.96 -3.89 -11.59 -5.17 -16.96 l-2.33 -9.76&#xA;1.88 -7.55 c1.03 -4.15 2.25 -7.77 2.7 -8.05 .45 -.28 .82 -1.39 .82 -2.46 0&#xA;-1.08 .56 -2.96 1.25 -4.19 .69 -1.23 1.32 -2.38 1.41 -2.57 .09 -.18 1.3 .41&#xA;2.69 1.32 2.45 1.61 2.63 1.56 6.3 -1.81 l3.78 -3.47 -3.38 -5.36 c-1.86&#xA;-2.95 -4.67 -7.99 -6.25 -11.2 -1.58 -3.21 -3.53 -7.71 -4.32 -10 -.8 -2.29&#xA;-1.46 -4.86 -1.46 -5.71 -.01 -.85 -1.72 -3.21 -3.81 -5.25 -2.09 -2.04 -4.02&#xA;-3.7 -4.3 -3.7 -.28 0 -1.95 1.48 -3.71 3.3z M659.92 1007.67 c-2.48 2.65&#xA;-8.56 10.23 -13.52 16.83 -4.96 6.6 -13.49 18.24 -18.96 25.86 -5.46 7.63&#xA;-10.89 15.28 -12.05 17.02 -1.16 1.73 -2.85 3.76 -3.75 4.51 -.9 .75 -1.63&#xA;1.93 -1.63 2.62 0 .7 -1.7 3.32 -3.77 5.83 -2.07 2.51 -4.37 6.6 -5.11 9.1&#xA;-.74 2.5 -1.1 5.17 -.81 5.94 .4 1.04 3.43 1.51 11.86 1.85 9.15 .37 11.89&#xA;.15 14.24 -1.14 1.6 -.88 7.45 -7.74 13 -15.24 5.55 -7.5 16 -21.15 23.18&#xA;-30.42 7.19 -9.27 14.69 -19.4 16.72 -22.42 2.03 -3.02 3.68 -6.44 3.68 -7.64&#xA;0 -1.38 -1.93 -3.93 -5.25 -6.86 -2.89 -2.55 -6.6 -5.36 -8.25 -6.23 -1.65&#xA;-.87 -3.47 -2.23 -4.04 -3.01 -.85 -1.15 -1.89 -.51 -5.54 3.4z M777.59&#xA;1087.75 c-.33 2.61 -.82 45.25 -1.08 94.75 -.27 49.5 -.13 91.31 .3 92.92 .74&#xA;2.74 1.69 3.21 15.6 7.72 8.15 2.64 18.64 6.65 23.32 8.92 6.4 3.1 10.15 5.78&#xA;15.14 10.83 3.65 3.69 9.24 10.96 12.42 16.16 3.19 5.2 6.47 11.76 7.28 14.58&#xA;1.32 4.55 1.32 6.47 -.01 17 -.83 6.53 -2.21 16.37 -3.09 21.87 -.87 5.5&#xA;-2.03 11.67 -2.56 13.71 -.54 2.04 -2.43 5.6 -4.2 7.91 -1.87 2.44 -9.32 8.46&#xA;-17.72 14.33 -7.98 5.57 -21.02 14.96 -29 20.87 -9.39 6.96 -18.2 12.53 -25&#xA;15.8 -5.77 2.78 -12.64 6.14 -15.25 7.47 -2.61 1.33 -5.3 2.42 -5.98 2.42&#xA;-.68 0 -4.39 1.2 -8.25 2.67 -3.86 1.47 -8.02 3.38 -9.24 4.25 -1.22 .87&#xA;-2.25 2.49 -2.27 3.52 -.02 1.04 -.45 3.46 -.97 5.44 -.53 1.99 -1.68 18.92&#xA;-2.56 37.63 -.88 18.71 -1.3 34.8 -.93 35.75 .62 1.63 5.22 1.74 72.31 1.73&#xA;68.35 -0 71.78 -.09 74.64 -1.88 1.65 -1.03 6.29 -4.99 10.3 -8.8 4.02 -3.81&#xA;8.74 -7.52 10.5 -8.24 1.76 -.73 7.92 -2.62 13.7 -4.19 5.77 -1.58 22.88 -5.8&#xA;38.02 -9.37 15.14 -3.58 28.92 -6.51 30.64 -6.51 1.71 0 10.7 1.81 19.98 4.03&#xA;9.28 2.21 21.14 5.18 26.36 6.6 5.22 1.41 14.22 3.94 20 5.61 5.78 1.67 12.97&#xA;4.28 16 5.8 3.03 1.52 8.2 4.82 11.5 7.34 3.3 2.52 7.27 5.61 8.82 6.86 l2.82&#xA;2.27 73.38 0 c53.97 0 73.83 -.49 74.68 -1.34 .89 -.89 .63 -3.75 -.65 -13.31&#xA;-.91 -6.79 -2.32 -17.75 -3.14 -24.35 -.82 -6.6 -1.93 -15.38 -2.47 -19.5&#xA;-.54 -4.12 -1.26 -10.09 -1.6 -13.25 -.44 -4.08 -1.04 -5.75 -2.08 -5.75 -.8&#xA;0 -4.53 -.93 -8.29 -2.08 -6.5 -1.98 -7.13 -2 -12.99 -.5 -3.38 .87 -6.59&#xA;1.58 -7.12 1.58 -.53 0 -1.6 -1.5 -2.36 -3.32 -.76 -1.83 -1.92 -6.36 -2.56&#xA;-10.07 -1.02 -5.87 -1.52 -6.87 -3.81 -7.74 -1.45 -.55 -3.99 -2.27 -5.64&#xA;-3.82 -1.65 -1.56 -12.22 -9.7 -23.5 -18.1 -11.28 -8.4 -24.45 -18.4 -29.28&#xA;-22.22 -4.83 -3.82 -10.77 -9.54 -13.21 -12.71 -2.44 -3.17 -5.17 -7.73 -6.07&#xA;-10.14 -3.76 -10.04 -6.63 -21.5 -7.13 -28.41 -.41 -5.65 -.07 -10.55 1.13&#xA;-16.5 .94 -4.65 3.48 -12.7 5.63 -17.87 2.16 -5.17 3.92 -10.06 3.92 -10.87 0&#xA;-.8 1.35 -3.09 3 -5.09 1.65 -2 5.81 -6.79 9.25 -10.66 3.44 -3.86 8.05 -8.22&#xA;10.25 -9.68 2.2 -1.46 7.21 -5.5 11.13 -8.97 3.92 -3.48 14.57 -12.36 23.67&#xA;-19.74 9.1 -7.38 19.94 -15.75 24.09 -18.6 4.15 -2.85 12.85 -7.8 19.33&#xA;-10.98 6.48 -3.19 20.55 -9.29 31.28 -13.56 10.72 -4.27 22.42 -9.15 26&#xA;-10.85 3.58 -1.7 7 -3.09 7.62 -3.09 .62 -0 16.82 -6.32 36 -14.03 19.18&#xA;-7.72 39.49 -16.29 45.13 -19.06 5.64 -2.76 10.25 -5.4 10.25 -5.86 0 -.46&#xA;-1.31 -3.69 -2.91 -7.19 -1.6 -3.5 -4.79 -10.86 -7.09 -16.36 -2.3 -5.5 -5.52&#xA;-12.11 -7.16 -14.69 -1.64 -2.58 -6.09 -7.62 -9.88 -11.2 -4.82 -4.55 -8.19&#xA;-6.86 -11.18 -7.68 -2.76 -.75 -7.93 -.95 -14.57 -.55 -5.66 .34 -17.14 1.29&#xA;-25.5 2.1 -24.03 2.35 -80.26 7.63 -85.71 8.04 -4.67 .35 -13.14 1.28 -18.82&#xA;2.05 -5.67 .77 -11.77 2.09 -13.55 2.94 -1.78 .84 -5.86 4.19 -9.07 7.43&#xA;-5.37 5.43 -5.88 6.33 -6.32 11.23 -.27 3.01 -1.23 6.2 -2.22 7.33 -.95 1.1&#xA;-2.78 3.91 -4.06 6.25 -1.28 2.34 -2.83 4.25 -3.45 4.25 -.62 0 -4.43 -4.16&#xA;-8.49 -9.25 -4.05 -5.09 -10.33 -12.32 -13.95 -16.08 -3.94 -4.09 -8.91 -8.02&#xA;-12.37 -9.79 -3.19 -1.63 -8.7 -4.94 -12.25 -7.37 -3.55 -2.43 -8.07 -4.72&#xA;-10.05 -5.09 -1.98 -.37 -6.59 -.38 -10.25 -.01 -3.66 .36 -15.2 1.07 -25.65&#xA;1.57 -10.45 .5 -26.88 1.6 -36.5 2.45 -21.2 1.87 -42.39 3.95 -57 5.61 -9.62&#xA;1.09 -30.1 3.34 -45.5 5 -15.4 1.66 -33.39 3.66 -39.98 4.46 -9.51 1.15&#xA;-13.23 2.08 -18 4.49 l-6.02 3.04 -7.24 -2.01 c-3.98 -1.11 -7.95 -2.01 -8.82&#xA;-2.01 -.87 0 -3.91 -2 -6.76 -4.44 -7.67 -6.57 -20.43 -17.06 -23.18 -19.06&#xA;-2.2 -1.6 -7.44 -6.19 -11.64 -10.21 -4.2 -4.01 -8.09 -7.3 -8.66 -7.3 -.56 0&#xA;-1.29 2.14 -1.62 4.75z M485.01 1111.92 c-1.37 .37 -2.64 1.42 -2.82 2.35&#xA;-.18 .92 2.49 5.4 5.94 9.96 3.44 4.55 15.94 20.43 27.76 35.28 11.83 14.85&#xA;24.01 29.47 27.08 32.5 4.74 4.67 9.37 7.42 30.8 18.25 13.87 7.01 25.81&#xA;12.75 26.53 12.75 .72 0 3.09 1.31 5.27 2.92 2.18 1.6 11.94 7 21.7 11.99&#xA;l17.73 9.08 4.48 -3.42 c3.19 -2.44 6.68 -3.91 12.11 -5.12 5.01 -1.12 10.07&#xA;-1.53 14.77 -1.22 3.93 .26 12.99 2.16 20.14 4.22 7.15 2.06 17.69 5.78 23.42&#xA;8.27 9.39 4.08 10.98 4.48 16 3.99 3.07 -.29 9.73 -2.15 14.8 -4.13 5.07&#xA;-1.98 11.6 -3.93 14.5 -4.35 5.14 -.73 5.28 -.84 5.56 -4.25 .15 -1.92 -2&#xA;-17.67 -4.8 -34.99 -2.79 -17.33 -6.22 -40.5 -7.61 -51.5 -1.39 -11 -2.75&#xA;-23.83 -3.02 -28.5 -.27 -4.67 -.97 -9.74 -1.55 -11.26 -.63 -1.64 -2.08&#xA;-3.02 -3.57 -3.39 -1.38 -.35 -9.22 -.32 -17.43 .07 -8.21 .38 -15.5 .92&#xA;-16.21 1.19 -.96 .37 -1.46 5.54 -1.95 20.2 -.36 10.84 -.95 24.99 -1.31&#xA;31.45 -.36 6.46 -1.03 11.75 -1.48 11.75 -.46 0 -1.9 -1.69 -3.21 -3.75 -1.46&#xA;-2.3 -2.45 -5.48 -2.56 -8.25 -.1 -2.47 -.57 -6.08 -1.05 -8 -.48 -1.92 -1.36&#xA;-7.33 -1.95 -12 -.59 -4.67 -1.34 -12.78 -1.66 -18 -.32 -5.22 -1.14 -10.26&#xA;-1.82 -11.19 -1.14 -1.56 -9.2 -1.74 -104.67 -2.31 -56.89 -.34 -104.34 -.76&#xA;-105.44 -.94 -1.1 -.17 -3.12 -.01 -4.49 .35z M220.7 1118.64 c-.35 .35 -.65&#xA;102.84 -.66 227.75 -.02 198.85 .16 227.72 1.47 232.02 .82 2.7 1.5 6.89 1.5&#xA;9.31 0 2.42 .51 6.41 1.13 8.87 .72 2.85 2.75 6.28 5.59 9.44 2.46 2.73 4.85&#xA;4.97 5.31 4.97 .47 0 3.7 -2.19 7.19 -4.86 3.49 -2.67 7.79 -5.61 9.56 -6.53&#xA;l3.22 -1.66 -.43 -215.72 c-.24 -118.65 -.43 -220.68 -.43 -226.73 l-0 -11.01&#xA;-4.92 -6.49 c-2.7 -3.57 -7.61 -8.99 -10.9 -12.04 -3.56 -3.29 -7.62 -6.03&#xA;-10.02 -6.75 -2.22 -.66 -4.69 -1.21 -5.5 -1.21 -.81 0 -1.75 .29 -2.1 .64z&#xA;M664.64 1280.31 c-.32 1.27 .05 8.36 .81 15.75 .77 7.39 1.72 18.12 2.11&#xA;23.85 .64 9.22 .54 10.34 -.85 9.81 -.86 -.33 -2.06 -.01 -2.66 .71 -.84 1.01&#xA;.97 3.28 7.97 9.93 7.15 6.8 10.9 9.5 17.77 12.78 4.79 2.29 10.25 5.3 12.14&#xA;6.7 2.66 1.97 3.54 2.23 3.9 1.14 .26 -.77 1.54 -2.32 2.85 -3.44 1.31 -1.12&#xA;6.59 -6.09 11.73 -11.04 5.14 -4.95 9.85 -9.97 10.45 -11.16 .83 -1.62 .75&#xA;-6.51 -.32 -19.51 -.79 -9.54 -1.61 -19.94 -1.82 -23.12 -.22 -3.18 -.81&#xA;-6.17 -1.31 -6.65 -.5 -.47 -10.59 -2.04 -22.41 -3.49 -11.83 -1.44 -25.06&#xA;-3.06 -29.41 -3.6 -4.35 -.54 -8.46 -.98 -9.14 -.98 -.68 0 -1.49 1.04 -1.81&#xA;2.31z M1685.5 1374.19 c-1.1 .62 -3.78 2.52 -5.95 4.22 -2.17 1.7 -4.87 3.56&#xA;-6 4.12 -2.05 1.03 -2.05 1.16 -2.3 126 -.14 68.73 -.65 137.35 -1.14 152.47&#xA;-.82 25.42 -1.09 28.18 -3.55 36.44 -1.46 4.92 -4.74 12.96 -7.28 17.88 -2.54&#xA;4.92 -7.06 12.37 -10.05 16.56 -2.99 4.19 -6.85 9.14 -8.58 11 -1.73 1.86&#xA;-6.75 6.09 -11.15 9.41 -4.4 3.31 -12.15 8 -17.22 10.42 -5.07 2.42 -13.62&#xA;5.53 -19 6.92 -8.78 2.27 -12.7 2.61 -38.28 3.38 -15.67 .47 -199.45 .9&#xA;-408.39 .95 -208.94 .06 -380.23 .31 -380.64 .56 -.41 .25 -1.04 2.03 -1.4&#xA;3.96 l-.66 3.5 -8.76 -.62 c-5 -.36 -13.04 -.1 -18.74 .6 -9.1 1.11 -11.02&#xA;1.03 -21.9 -.95 -7.78 -1.41 -13.51 -1.94 -16.47 -1.52 -2.5 .36 -6.32 1.17&#xA;-8.49 1.8 -2.49 .73 -6.09 3.24 -9.75 6.83 -4.99 4.88 -5.8 6.2 -5.8 9.35 -0&#xA;2.02 .5 4.65 1.12 5.85 .61 1.2 3.18 4.32 5.71 6.93 4.21 4.35 5 4.75 9.33&#xA;4.75 2.6 0 5.04 -.5 5.42 -1.11 .38 -.61 2.65 -1.98 5.05 -3.04 4.19 -1.85&#xA;4.67 -1.87 12.48 -.39 4.47 .85 11.14 1.54 14.83 1.54 3.69 0 9.15 .76 12.14&#xA;1.7 5.07 1.59 32.38 1.7 413.93 1.7 312.12 -0 411.42 -.29 420.88 -1.21 6.81&#xA;-.67 15.92 -2.11 20.25 -3.22 4.33 -1.1 11.13 -3.18 15.12 -4.61 3.99 -1.43&#xA;10.4 -4.18 14.25 -6.1 3.85 -1.92 11.95 -6.76 18 -10.75 6.05 -3.99 14.29&#xA;-10.3 18.32 -14.03 4.02 -3.73 10.15 -10.42 13.62 -14.87 3.47 -4.45 8.23&#xA;-11.24 10.59 -15.09 2.36 -3.85 5.39 -9.47 6.75 -12.5 1.36 -3.03 4 -10 5.87&#xA;-15.5 1.87 -5.5 4.05 -14.05 4.84 -19 .79 -4.95 1.9 -16.19 2.47 -24.98 .63&#xA;-9.74 1.04 -67.89 1.04 -148.87 l0 -132.88 -3.45 -4.7 c-1.9 -2.59 -5.7 -6.81&#xA;-8.46 -9.38 -2.75 -2.58 -5.36 -4.67 -5.8 -4.65 -.44 .02 -1.69 .54 -2.79&#xA;1.16z" fill="#349799" fill-rule="evenodd" stroke="#349799" stroke-linejoin="round" stroke-width="0.80"/>
<path d="M911.5 277.94 c-536.51 .58 -571.51 .72 -579.5 2.35 -4.68 .95 -11.43 2.69&#xA;-15 3.86 -3.57 1.17 -10.76 4.13 -15.96 6.58 -5.21 2.45 -12.75 6.72 -16.77&#xA;9.5 -4.02 2.78 -8.54 6.45 -10.06 8.16 -1.52 1.71 -4.62 4.33 -6.9 5.83 -2.28&#xA;1.49 -6.88 5.99 -10.23 10 -3.35 4.01 -7.27 8.61 -8.72 10.22 -1.45 1.61&#xA;-5.24 6.9 -8.43 11.75 -3.18 4.85 -6.75 11.4 -7.94 14.55 -1.18 3.16 -2.54&#xA;6.21 -3.01 6.78 -.48 .57 -2 4.94 -3.38 9.71 -1.38 4.77 -3.32 14.88 -4.31&#xA;22.47 -1.7 13.09 -1.78 31.96 -1.54 365.8 .14 193.6 .48 353.36 .75 355.01&#xA;.44 2.69 1.05 3.15 5.62 4.23 2.82 .67 6.66 2.39 8.53 3.81 1.87 1.43 5.81&#xA;5.82 8.75 9.77 2.94 3.95 6.11 8.67 7.04 10.51 .93 1.83 1.61 5.21 1.52 7.5&#xA;-.09 2.29 -.12 4.73 -.07 5.41 .05 .69 .43 1.25 .84 1.25 .41 0 .89 -1.01&#xA;1.06 -2.25 .17 -1.24 .48 -95.62 .68 -209.75 .2 -114.12 .61 -281.53 .91 -372&#xA;.29 -87.45 .42 -130.84 1.13 -154.42 .7 -23.58 1.98 -27.35 4.55 -35.58 1.12&#xA;-3.58 3.24 -8.95 4.73 -11.95 1.48 -3 3.49 -6.35 4.45 -7.44 .96 -1.09 1.75&#xA;-2.78 1.75 -3.75 0 -.97 5.46 -7.4 12.13 -14.29 8.99 -9.29 13.98 -13.57&#xA;19.25 -16.56 3.91 -2.22 7.79 -4.43 8.62 -4.93 .82 -.5 5.1 -2.04 9.5 -3.44&#xA;4.4 -1.39 10.7 -3.34 14 -4.32 5.72 -1.7 34.5 -1.8 621.5 -2.09 441.29 -.22&#xA;617.91 0 624 .79 4.67 .6 11.96 1.97 16.2 3.04 4.23 1.07 11.87 3.98 16.96&#xA;6.46 5.1 2.48 10.43 5.63 11.86 6.99 1.43 1.37 3.07 2.48 3.67 2.48 .59 0&#xA;4.85 3.71 9.46 8.25 4.61 4.54 10.46 11.4 13 15.25 2.54 3.85 6.2 10.17 8.14&#xA;14.04 1.94 3.87 4.7 11.3 6.15 16.5 1.87 6.73 2.76 12.78 3.09 20.96 .26 6.33&#xA;.66 227.28 .89 491 .23 263.72 .72 480.26 1.08 481.19 .41 1.06 1.28 1.46&#xA;2.33 1.07 .92 -.34 3.47 -2.05 5.67 -3.8 2.2 -1.76 5.01 -3.72 6.25 -4.36&#xA;1.65 -.86 2.78 -.88 4.24 -.1 1.09 .59 3.76 3.41 5.93 6.29 2.17 2.87 4.47&#xA;6.57 5.11 8.22 .64 1.65 1.41 5.03 1.71 7.5 .3 2.47 .53 5.51 .51 6.75 -.02&#xA;1.28 .56 2.25 1.36 2.25 1.19 0 1.39 -72.68 1.39 -497.25 -0 -341.94 -.33&#xA;-500.84 -1.06 -508.75 -.58 -6.33 -1.94 -14.99 -3.02 -19.25 -1.08 -4.26&#xA;-3.12 -11.01 -4.55 -15 -1.42 -3.99 -5.07 -11.98 -8.09 -17.75 -3.03 -5.77&#xA;-7.75 -13.76 -10.51 -17.74 -2.75 -3.98 -9.2 -11.47 -14.33 -16.64 -5.13&#xA;-5.17 -12.76 -11.7 -16.97 -14.51 -4.21 -2.81 -8.08 -5.11 -8.6 -5.11 -.53 0&#xA;-1.95 -.96 -3.17 -2.13 -1.21 -1.17 -6.8 -4.35 -12.42 -7.06 -13.08 -6.31&#xA;-29.37 -10.51 -43.38 -11.17 -5.72 -.27 -29.98 -.68 -53.9 -.9 -23.92 -.22&#xA;-300.45 -.13 -614.5 .21z M658.93 509.37 c-2.51 .68 -6.69 2.47 -9.27 3.99&#xA;-2.59 1.52 -7.6 5.47 -11.15 8.79 -3.55 3.32 -8.74 9.13 -11.55 12.92 -4.88&#xA;6.58 -5.04 6.99 -3.53 9.14 .87 1.24 1.58 3.07 1.58 4.08 0 1.01 2.51 7.55&#xA;5.58 14.53 3.07 6.98 6.31 13.69 7.23 14.63 1.56 1.59 2.23 1.07 10.55 -4.96&#xA;4.87 -3.53 11.18 -7.28 14.01 -8.34 2.83 -1.06 8.74 -2.45 13.14 -3.08 4.4&#xA;-.64 9.31 -1.59 10.91 -2.11 2.22 -.73 3.31 -.6 4.59 .56 1.55 1.4 1.79 1.38&#xA;3.26 -.24 .87 -.97 1.88 -2.94 2.24 -4.37 .36 -1.44 .14 -4.59 -.5 -7 -.63&#xA;-2.41 -2.9 -8.05 -5.05 -12.53 -2.85 -5.94 -6 -10.37 -11.68 -16.41 -4.28&#xA;-4.55 -9.22 -8.87 -10.99 -9.61 -1.77 -.74 -3.57 -1.31 -4 -1.28 -.43 .04&#xA;-2.84 .62 -5.35 1.3z M840.5 877.94 c-1.65 .4 -4.58 1.53 -6.5 2.51 -1.92 .98&#xA;-8.67 4.63 -15 8.1 -6.33 3.48 -13.3 6.64 -15.5 7.03 -2.48 .43 -4.95 1.75&#xA;-6.5 3.46 -1.38 1.52 -7.23 6.98 -13 12.14 -5.77 5.16 -13.57 12.03 -17.32&#xA;15.28 -3.75 3.25 -7.52 7.29 -8.39 8.98 -.86 1.69 -2.87 4.72 -4.45 6.74&#xA;-1.59 2.02 -6.66 6.21 -11.28 9.31 -7.5 5.04 -9.3 6.92 -16.98 17.68 -4.72&#xA;6.62 -8.59 12.95 -8.59 14.08 0 1.13 1.87 3.78 4.15 5.89 2.28 2.11 6.57 4.74&#xA;9.54 5.85 2.96 1.11 6.05 2.02 6.87 2.02 .82 0 3.04 -.64 4.92 -1.42 2.63&#xA;-1.1 17.05 -12.44 35.32 -27.78 5.05 -4.24 16.03 -13.91 24.41 -21.5 8.38&#xA;-7.59 17.38 -15.93 19.99 -18.55 2.61 -2.61 5.18 -4.75 5.7 -4.75 .53 0 2.11&#xA;-2.51 3.51 -5.58 1.73 -3.78 5.6 -8.72 12.01 -15.34 5.85 -6.04 9.71 -10.87&#xA;10.1 -12.67 .35 -1.6 .81 -3.45 1.01 -4.1 .2 -.66 -1.2 -2.57 -3.12 -4.25&#xA;-1.91 -1.68 -3.88 -3.06 -4.37 -3.06 -.49 0 -1.48 -.18 -2.22 -.4 -.73 -.22&#xA;-2.68 -.07 -4.33 .33z M1053.87 891.64 c-.07 .47 -.25 2.03 -.39 3.41 -.14&#xA;1.38 -1.02 7.85 -1.94 14.45 -.93 6.6 -1.77 15.15 -1.88 19 -.11 3.85 -.55&#xA;7.54 -1.01 8.28 -.52 .83 -.36 1.9 .49 2.68 .75 .7 3.84 1.74 6.87 2.31 3.02&#xA;.57 5.84 .83 6.25 .57 .41 -.26 .75 -1.28 .75 -2.27 0 -.99 .83 -2.88 1.85&#xA;-4.19 1.02 -1.31 3.89 -5.98 6.39 -10.38 2.5 -4.4 4.87 -9.12 5.27 -10.5 .4&#xA;-1.38 1.51 -3.36 2.4 -4.37 1.53 -1.74 1.18 -2.2 -5.42 -8.49 -3.85 -3.67&#xA;-8.57 -7.41 -10.49 -8.32 -1.92 -.91 -4.74 -1.96 -6.25 -2.34 -1.51 -.38&#xA;-2.81 -.3 -2.88 .17z M1165.63 979.79 c-.33 .53 -2.55 1.46 -4.94 2.06 -2.39&#xA;.6 -11.91 4.49 -21.15 8.65 -9.24 4.15 -18.05 8.44 -19.58 9.53 -1.53 1.09&#xA;-3.55 1.97 -4.48 1.97 -.93 0 -5.17 1.82 -9.45 4.04 -4.27 2.22 -8.51 4.59&#xA;-9.42 5.25 -1.3 .95 5.19 1.16 30.62 .96 17.75 -.14 35.81 -.7 40.14 -1.25&#xA;5.87 -.74 9.81 -1.99 15.5 -4.9 4.2 -2.15 11.69 -5.79 16.55 -8.04 4.86 -2.25&#xA;9.89 -4.95 11.28 -6.04 l2.53 -1.99 -2.86 -1.09 c-1.57 -.6 -6.69 -1.94&#xA;-11.36 -2.99 -9.24 -2.06 -23.99 -5.15 -26.02 -5.45 -1.36 -.2 -3.44 -.66&#xA;-4.62 -1.03 -1.26 -.39 -2.38 -.26 -2.73 .31z M740.76 1017.25 c-2.16 2.34&#xA;-7.95 9.51 -12.86 15.95 -4.91 6.43 -9.4 11.99 -9.97 12.34 -.57 .35 -2.13&#xA;.37 -3.46 .04 -1.33 -.33 -4.92 -2.64 -7.97 -5.13 -3.05 -2.49 -6.61 -5 -7.9&#xA;-5.59 -1.7 -.77 -2.92 -.76 -4.43 .04 -1.14 .61 -5 4.85 -8.57 9.42 -3.57&#xA;4.57 -8.53 11.76 -11.03 15.98 -2.5 4.22 -4.84 8.91 -5.2 10.43 -.36 1.52&#xA;-1.67 4.56 -2.9 6.76 -1.23 2.2 -2.5 5.45 -2.83 7.21 -.34 1.88 -.2 3.45 .36&#xA;3.8 .52 .32 19.55 .62 42.28 .67 29.82 .06 41.94 -.24 43.52 -1.08 2.05 -1.1&#xA;2.19 -1.87 2.19 -12.57 0 -6.27 .44 -12.55 .98 -13.96 l.98 -2.57 60.31 0&#xA;60.31 0 1.58 -2.75 c.87 -1.51 2.8 -6.45 4.29 -10.97 1.49 -4.52 2.56 -9.23&#xA;2.38 -10.46 -.24 -1.68 -1.25 -2.31 -4.07 -2.89 -2.06 -.43 -13.31 -2.26 -25&#xA;-3.94 -11.69 -1.68 -32.06 -4.41 -45.26 -6.07 -13.2 -1.66 -29.91 -3.9 -37.13&#xA;-4.97 -7.22 -1.07 -15.5 -2.4 -18.39 -2.95 -2.89 -.55 -5.94 -1 -6.77 -1 -.83&#xA;0 -3.29 1.91 -5.45 4.25z" fill="#50b5b1" fill-rule="evenodd" stroke="#50b5b1" stroke-linejoin="round" stroke-width="0.80"/>
<path d="M635.23 480.41 c-11.93 5.93 -19.74 10.42 -21.09 12.14 -1.18 1.5 -2.82 5&#xA;-3.64 7.77 -.82 2.77 -1.5 6.33 -1.5 7.91 0 1.57 1.59 7.11 3.54 12.31 1.95&#xA;5.2 4.82 12.16 6.38 15.46 1.56 3.31 3.4 6.69 4.08 7.51 .68 .82 1.58 1.49 2&#xA;1.49 .42 0 3.56 -3.85 6.98 -8.56 3.42 -4.71 8.5 -10.36 11.3 -12.57 2.79&#xA;-2.21 6.76 -4.87 8.82 -5.92 2.05 -1.05 5.8 -2.37 8.33 -2.94 3.64 -.82 5.28&#xA;-.75 7.89 .35 1.81 .76 5.39 3.77 7.95 6.7 2.56 2.93 5.98 7.82 7.61 10.88&#xA;1.62 3.06 3.93 8.46 5.11 12 1.43 4.27 1.95 7.57 1.53 9.78 -.55 2.93 -.1&#xA;3.94 3.74 8.33 2.4 2.74 6.54 8.59 9.2 13 4.63 7.66 4.76 8.07 2.95 9.39&#xA;-1.87 1.36 -1.87 1.41 .1 3.61 1.09 1.23 5.09 3.73 8.89 5.56 3.8 1.83 7.22&#xA;3.13 7.62 2.88 .4 -.24 1 -1.67 1.32 -3.27 .32 -1.6 .08 -4.72 -.51 -6.85&#xA;-.59 -2.13 -2.98 -8.14 -5.33 -13.37 -2.34 -5.22 -5.08 -11.82 -6.09 -14.67&#xA;l-1.83 -5.17 4.26 -4.62 c3.31 -3.59 4.11 -5.12 3.6 -6.83 -.36 -1.22 -2.63&#xA;-6.26 -5.03 -11.21 -2.4 -4.95 -5.79 -10.72 -7.53 -12.83 -3.05 -3.69 -3.32&#xA;-3.8 -7.87 -3.18 -4.2 .58 -4.86 .4 -6.18 -1.67 -.81 -1.28 -4.36 -8.82 -7.89&#xA;-16.76 -3.52 -7.94 -7.53 -15.78 -8.91 -17.42 -1.38 -1.64 -5.31 -4.25 -8.75&#xA;-5.81 -3.44 -1.56 -7.57 -2.83 -9.18 -2.83 -1.69 0 -10.94 3.98 -21.88 9.41z&#xA;M558.5 563.55 c-8.8 4.15 -18.84 8.98 -22.31 10.73 -3.47 1.75 -7.07 4.03 -8&#xA;5.06 -1.23 1.37 -1.69 3.68 -1.69 8.52 0 5.67 .3 6.8 2.05 7.72 1.13 .6 5.63&#xA;2.03 10 3.17 4.37 1.15 9.98 2.41 12.45 2.8 2.48 .39 8.72 .67 13.87 .61 6.61&#xA;-.07 10.06 -.55 11.71 -1.63 1.29 -.85 2.99 -1.54 3.77 -1.54 .79 0 1.69 .67&#xA;2 1.5 .32 .83 1.24 1.5 2.05 1.5 .81 0 1.76 .46 2.1 1.02 .35 .56 -.99 3.23&#xA;-2.97 5.93 -1.98 2.7 -3.99 5.05 -4.47 5.23 -.48 .18 -12.24 10.38 -16.03&#xA;13.9 -.93 .87 -2.45 1.87 -3.37 2.22 -1.05 .4 -1.67 1.76 -1.67 3.64 0 1.97&#xA;.68 3.36 2 4.07 1.1 .59 2 1.57 2 2.17 0 .61 .65 1.6 1.45 2.21 .8 .61 2.36&#xA;5.61 3.46 11.11 1.1 5.5 3.63 19.9 5.62 32 1.99 12.1 4.91 28.08 6.49 35.5&#xA;1.58 7.42 4.3 19.35 6.04 26.5 1.74 7.15 3.8 14.24 4.58 15.75 1.21 2.36 2.03&#xA;2.75 5.77 2.75 2.39 0 6.09 .77 8.22 1.7 3.01 1.32 6.93 1.71 17.54 1.75 7.52&#xA;.03 14.03 -.31 14.47 -.76 .44 -.44 .16 -1.21 -.64 -1.7 -.79 -.49 -1.23&#xA;-1.11 -.97 -1.37 .26 -.26 3.4 .16 6.97 .93 3.57 .77 14.09 2.81 23.38 4.53&#xA;9.28 1.72 20.76 3.52 25.5 3.99 4.74 .47 10.98 1.16 13.87 1.51 3.76 .47 5.25&#xA;.32 5.25 -.54 0 -.66 -.55 -2.18 -1.23 -3.38 -.68 -1.2 -1.27 -3.76 -1.33&#xA;-5.68 -.05 -1.92 -1.54 -6.6 -3.3 -10.39 -1.76 -3.79 -3.01 -7.08 -2.78 -7.32&#xA;.24 -.24 2.46 1.74 4.93 4.39 2.48 2.65 7.77 8.87 11.77 13.82 4 4.95 8.57&#xA;11.86 10.15 15.35 1.59 3.49 5.73 14.97 9.21 25.5 3.48 10.53 7.51 21.71 8.95&#xA;24.85 1.44 3.13 3.07 5.97 3.62 6.31 .55 .34 1 1.44 1 2.45 0 1.01 1.26 3.12&#xA;2.8 4.69 1.54 1.57 6.47 5.52 10.96 8.77 4.49 3.25 9.6 7.4 11.35 9.21 2.63&#xA;2.71 2.98 3.56 1.96 4.78 -.68 .82 -3.44 2.22 -6.13 3.11 -4.35 1.44 -6 1.49&#xA;-14.67 .4 -5.37 -.68 -11.91 -2.02 -14.53 -2.98 -2.61 -.96 -5.59 -1.53 -6.62&#xA;-1.26 -1.56 .41 -2.05 2.14 -3.02 10.65 -1.06 9.31 -.82 10.41 .78 11.57 .96&#xA;.7 3.19 1.58 5.18 2.12 1.99 .54 5.45 2.22 7.68 3.73 2.6 1.77 8.85 8.63&#xA;12.78 14.03 .11 .15 1.28 -.14 2.59 -.65 1.31 -.51 9.14 -7.66 17.39 -15.9&#xA;8.25 -8.23 19.32 -19.42 24.59 -24.85 5.27 -5.44 12.06 -12.81 15.08 -16.38&#xA;3.02 -3.58 8.82 -10.78 12.9 -16 4.08 -5.22 14.28 -19.82 22.67 -32.44 8.39&#xA;-12.61 15.37 -23.63 15.51 -24.48 .18 -1.09 -1.19 -1.91 -4.65 -2.78 -2.7&#xA;-.68 -6.18 -2.46 -7.75 -3.96 -2.03 -1.94 -2.85 -3.7 -2.85 -6.11 -0 -1.86&#xA;.48 -4.28 1.07 -5.38 .81 -1.52 .77 -2.35 -.16 -3.48 -.68 -.82 -1.37 -2.93&#xA;-1.55 -4.69 -.17 -1.76 -.32 -8.15 -.34 -14.2 -.01 -6.05 .47 -13.7 1.06 -17&#xA;.6 -3.3 1.03 -7.66 .96 -9.68 -.07 -2.03 .78 -5.63 1.89 -8 1.11 -2.37 2.37&#xA;-6.08 2.82 -8.24 .44 -2.16 1.37 -4.11 2.05 -4.34 .87 -.29 1.21 .75 1.12&#xA;3.43 -.07 2.11 .08 5.95 .34 8.52 .26 2.63 2.09 7.89 4.18 12 2.15 4.24 6.31&#xA;10.06 9.88 13.82 3.39 3.58 7.12 7.05 8.29 7.72 1.17 .67 2.37 2.13 2.66 3.25&#xA;.36 1.38 1.3 2.03 3.06 2.03 1.42 0 7.97 2.47 14.49 5.5 6.51 3.03 12.51 5.5&#xA;13.33 5.5 .82 0 2.43 -1.01 3.59 -2.25 1.15 -1.24 4.49 -7.2 7.42 -13.26 2.93&#xA;-6.05 6.1 -13.25 7.03 -16 .94 -2.75 2.32 -5.84 3.08 -6.87 1.33 -1.81 1.55&#xA;-1.82 6.95 -.25 3.07 .89 6.76 1.62 8.2 1.62 1.8 0 2.88 -.7 3.46 -2.25 .46&#xA;-1.24 1.15 -10.35 1.53 -20.25 .63 -16.48 .86 -18.13 2.71 -19.5 1.12 -.83&#xA;3.34 -2.62 4.94 -4 2.31 -1.98 3.23 -4.02 4.42 -9.82 .83 -4.02 1.51 -9.61&#xA;1.51 -12.42 0 -4.74 .31 -5.39 4.25 -8.95 2.34 -2.12 6.73 -5.78 9.75 -8.15&#xA;4.31 -3.37 5.43 -4.81 5.16 -6.64 -.19 -1.28 -3.7 -9.13 -7.81 -17.42 -4.68&#xA;-9.47 -8.84 -16.46 -11.16 -18.77 -2.12 -2.11 -10.53 -7.27 -19.69 -12.08&#xA;-8.8 -4.62 -21.97 -11.22 -29.26 -14.67 -10.74 -5.08 -13.97 -6.19 -17 -5.85&#xA;-2.06 .23 -13.19 2.33 -24.74 4.67 -11.55 2.33 -22.3 4.74 -23.9 5.36 -1.73&#xA;.67 -8.9 7.97 -17.86 18.19 -8.23 9.39 -15.96 18.64 -17.19 20.57 -1.84 2.88&#xA;-2.35 5.51 -2.88 14.92 -.56 9.98 -.93 11.73 -2.91 13.84 -1.24 1.33 -6.31&#xA;4.81 -11.26 7.72 -4.95 2.92 -9.87 6.26 -10.93 7.43 -1.87 2.08 -1.88 2.28&#xA;-.27 7.39 .91 2.89 2.76 6.76 4.12 8.59 1.35 1.83 3.49 4.07 4.74 4.97 1.25&#xA;.9 5.44 3.45 9.3 5.66 3.86 2.21 7.17 4.79 7.35 5.73 .18 .94 -3.06 6.25&#xA;-7.21 11.8 -4.14 5.56 -8.66 10.99 -10.04 12.07 -1.38 1.08 -5.69 3.06 -9.59&#xA;4.38 -3.9 1.33 -11.81 3.38 -17.58 4.56 l-10.49 2.15 -5.7 -4.46 c-3.14 -2.46&#xA;-7.16 -5.21 -8.94 -6.13 -1.78 -.92 -7.57 -2.56 -12.86 -3.64 -5.29 -1.09&#xA;-10.93 -1.98 -12.54 -1.98 -1.61 0 -5.72 .94 -9.14 2.08 -3.42 1.14 -11.39&#xA;4.12 -17.72 6.61 -6.33 2.49 -13.47 5.68 -15.89 7.09 l-4.39 2.57 -9.39 -3.3&#xA;c-6.53 -2.29 -10.37 -3.13 -12.61 -2.73 -1.77 .31 -9.27 1.96 -16.65 3.65&#xA;-7.39 1.69 -16.06 4.26 -19.27 5.7 -3.21 1.44 -6.06 2.4 -6.32 2.14 -.27 -.27&#xA;-.03 -2.87 .52 -5.78 .55 -2.91 1 -7.18 1 -9.49 0 -2.67 -1.41 -7.44 -3.88&#xA;-13.11 -2.13 -4.91 -7.81 -17.23 -12.62 -27.39 -4.81 -10.16 -8.95 -20.06&#xA;-9.19 -22 -.37 -2.97 .63 -5.38 6.24 -15.03 3.68 -6.33 8 -14.2 9.6 -17.5&#xA;2.66 -5.48 2.81 -6.6 2.24 -13.01 l-.58 -7.04 8.14 -3.36 c4.47 -1.85 8.75&#xA;-4.24 9.5 -5.31 1.18 -1.69 1.16 -2.57 -.18 -6.49 -.94 -2.76 -2.28 -4.73&#xA;-3.42 -5.03 -1.03 -.27 -1.8 -1 -1.7 -1.62 .1 -.62 -.08 -1.8 -.4 -2.63 -.32&#xA;-.83 -.83 -2.62 -1.14 -4 -.31 -1.38 -1.47 -3.96 -2.57 -5.75 -1.1 -1.79 -2.7&#xA;-3.13 -3.67 -3.12 -.97 .01 -4.53 1.25 -7.78 2.89 -3.25 1.65 -6.4 3.38 -7&#xA;3.85 -.6 .47 -3.53 1.48 -6.51 2.23 -4.17 1.05 -5.51 1.09 -5.81 .19 -.21&#xA;-.64 -1.71 -3 -3.33 -5.23 -2.21 -3.06 -3.63 -4.06 -5.69 -4.06 -1.51 0 -9.94&#xA;3.4 -18.74 7.55z M505 603.42 c-9.32 4.48 -16.54 8.62 -18.12 10.38 -1.85&#xA;2.07 -2.83 4.57 -3.32 8.49 -.56 4.52 -.32 6.28 1.31 9.48 1.1 2.16 3.62 5.35&#xA;5.6 7.08 2.53 2.22 4.6 3.16 7.01 3.16 1.99 0 7.4 -1.9 12.97 -4.55 5.25 -2.5&#xA;9.55 -4.94 9.55 -5.42 0 -.47 -2.8 -3.4 -6.22 -6.49 -5.12 -4.63 -6.03 -5.92&#xA;-5.17 -7.29 .58 -.92 3.23 -3.17 5.89 -5 3.86 -2.66 5.44 -3.2 7.8 -2.68 2.87&#xA;.63 2.94 .56 2.14 -2.21 -.46 -1.57 -.85 -4.88 -.89 -7.34 -.04 -3.16 -.5&#xA;-4.57 -1.56 -4.76 -.83 -.15 -8.47 3.07 -17 7.17z M895.32 769.85 c-1.14 .91&#xA;-4.74 5.7 -8.01 10.65 -3.27 4.95 -8.14 12.6 -10.82 17 -2.68 4.4 -8.98 13.85&#xA;-14 21 -5.02 7.15 -14.04 19.97 -20.05 28.5 -6.01 8.53 -14.07 19.1 -17.91&#xA;23.5 -3.84 4.4 -11.82 12.89 -17.73 18.88 -5.91 5.98 -10.48 11.33 -10.14&#xA;11.87 .39 .63 2.46 .78 5.63 .4 3.57 -.42 8.36 -2.45 16.61 -7.02 6.38 -3.53&#xA;13.4 -7.3 15.6 -8.38 2.2 -1.08 5.45 -2.24 7.21 -2.57 1.97 -.37 3.45 -.23&#xA;3.82 .37 .33 .54 1.03 .72 1.54 .41 .51 -.32 .93 .6 .93 2.03 0 1.43 -.64&#xA;3.82 -1.41 5.31 -.78 1.49 -4.96 6.08 -9.29 10.2 -4.9 4.67 -8.96 9.61 -10.76&#xA;13.08 -1.66 3.22 -2.61 6.29 -2.24 7.25 .35 .92 1.09 1.67 1.65 1.67 .56 0&#xA;4.48 -3.16 8.72 -7.02 4.24 -3.86 10.95 -10.62 14.93 -15.01 3.97 -4.39 14.35&#xA;-18.76 23.07 -31.92 8.71 -13.16 21.16 -32.62 27.66 -43.24 6.5 -10.62 14.3&#xA;-23.52 17.33 -28.66 4.04 -6.86 5.36 -9.99 4.92 -11.71 -.38 -1.51 -4.16&#xA;-4.88 -10.53 -9.4 -5.46 -3.87 -10.98 -7.44 -12.29 -7.93 -1.74 -.66 -2.92&#xA;-.46 -4.43 .75z M933.51 802.25 c-.87 1.24 -5.42 8.3 -10.12 15.7 -4.7 7.4&#xA;-9.72 15.5 -11.16 18 -1.44 2.5 -7.64 12.2 -13.77 21.55 -6.13 9.35 -15.09&#xA;23.08 -19.91 30.5 -7.76 11.95 -11.05 15.8 -28.66 33.58 -10.94 11.04 -19.89&#xA;20.58 -19.89 21.18 0 .61 -.88 1.38 -1.96 1.73 -1.08 .34 -5.91 4.31 -10.75&#xA;8.83 -4.84 4.51 -14.39 12.93 -21.22 18.7 -6.83 5.77 -16.02 13.5 -20.42&#xA;17.17 -4.4 3.67 -8.41 7.42 -8.92 8.32 -.66 1.18 -.39 2.05 .9 3 .99 .73 3.83&#xA;1.51 6.32 1.78 2.49 .27 12.41 1.66 22.04 3.08 9.62 1.42 28.08 3.93 41 5.57&#xA;12.92 1.64 26.91 3.28 31.09 3.65 l7.59 .67 1.08 -4.37 c.59 -2.41 2.03 -9.55&#xA;3.2 -15.87 1.6 -8.68 3.84 -15.75 9.11 -28.82 3.84 -9.53 7.74 -18.51 8.57&#xA;-19.78 1.45 -2.21 1.41 -3.01 .45 -18.15 -.04 -.69 -.94 -1.25 -1.99 -1.25&#xA;-1.39 0 -1.77 -.52 -1.4 -1.92 .37 -1.4 -.32 -2.35 -2.49 -3.47 -1.65 -.85&#xA;-4.17 -3.64 -5.6 -6.2 -1.43 -2.56 -2.6 -4.77 -2.6 -4.91 0 -.14 1.01 -.5&#xA;2.25 -.79 1.24 -.29 7.14 -2.36 13.11 -4.58 5.97 -2.23 11.55 -4.63 12.4&#xA;-5.33 .85 -.7 2.93 -1.73 4.62 -2.28 1.97 -.64 3.32 -1.9 3.77 -3.5 .38 -1.38&#xA;2.11 -6.78 3.84 -12 1.73 -5.22 4.02 -12.88 5.07 -17 1.05 -4.12 1.92 -8.96&#xA;1.93 -10.75 .01 -1.79 .48 -3.25 1.04 -3.25 .57 0 1.19 .56 1.38 1.25 .19 .69&#xA;.94 3.28 1.66 5.75 .72 2.47 2.73 7.42 4.46 11 1.73 3.58 4.64 8.87 6.46&#xA;11.76 1.82 2.89 3.05 5.52 2.73 5.85 -.32 .32 -1.9 -.19 -3.5 -1.13 -2.81&#xA;-1.66 -2.99 -1.65 -5.14 .15 -1.23 1.03 -3.1 3.65 -4.16 5.81 -1.06 2.17&#xA;-1.92 4.53 -1.92 5.26 0 .73 -.42 2.11 -.94 3.06 -.52 .96 -1.79 4.52 -2.83&#xA;7.92 l-1.89 6.18 2.78 11.32 c1.53 6.23 3.92 14.1 5.31 17.49 1.39 3.39 5.03&#xA;9.47 8.07 13.5 3.05 4.03 7.17 10.57 9.15 14.53 2.85 5.68 3.72 8.75 4.11&#xA;14.5 .37 5.36 1 7.77 2.37 9.08 1.03 .98 1.87 2.87 1.87 4.2 0 1.33 .63 2.77&#xA;1.39 3.21 .76 .44 3.21 3.11 5.43 5.93 2.22 2.82 6.34 7.44 9.16 10.25 2.81&#xA;2.81 5.52 5.12 6.02 5.12 .5 0 1.69 1.69 2.66 3.75 .96 2.06 4.62 7.35 8.13&#xA;11.75 3.51 4.4 6.97 8.74 7.69 9.64 .72 .9 1.61 3.44 1.98 5.65 .5 2.96 1.25&#xA;4.17 2.86 4.6 1.2 .32 5.1 .59 8.68 .59 3.58 0 10.22 -.28 14.77 -.64 7.79&#xA;-.61 8.24 -.76 7.67 -2.74 -.33 -1.16 -2.01 -5.25 -3.74 -9.1 -1.73 -3.85&#xA;-9.08 -18.95 -16.34 -33.56 -9.48 -19.07 -14.47 -27.97 -17.7 -31.56 -2.47&#xA;-2.75 -6.32 -6.26 -8.55 -7.81 -2.95 -2.05 -4.73 -2.63 -6.58 -2.17 -1.41 .35&#xA;-3.7 2.4 -5.16 4.62 -1.45 2.19 -3.02 3.98 -3.5 3.98 -.48 0 -.87 -.49 -.87&#xA;-1.09 0 -.6 .67 -6.79 1.48 -13.75 .82 -6.96 2.46 -18.82 3.66 -26.35 l2.17&#xA;-13.69 -8.04 -16.32 c-4.42 -8.97 -8.58 -18.12 -9.24 -20.31 -1.05 -3.51 -.82&#xA;-5.67 1.89 -17.79 1.7 -7.58 3.09 -15.45 3.09 -17.49 -0 -2.04 -1.53 -7.99&#xA;-3.4 -13.22 -1.87 -5.22 -4.57 -12.14 -5.99 -15.36 -1.75 -3.95 -4.72 -7.94&#xA;-9.11 -12.25 -3.58 -3.51 -8.38 -7.74 -10.65 -9.39 -2.28 -1.65 -4.73 -3&#xA;-5.45 -3 -.72 0 -2.01 1.01 -2.88 2.25z M1195.37 850.42 l-27.13 13.41 -5.87&#xA;6.91 c-3.23 3.8 -15.77 19.89 -27.87 35.76 -12.1 15.87 -26.29 34.29 -31.53&#xA;40.93 -5.24 6.64 -13.61 17.48 -18.6 24.08 -4.99 6.6 -10.07 13.69 -11.3&#xA;15.75 -1.23 2.06 -2 3.75 -1.71 3.75 .29 0 2.24 -.98 4.33 -2.18 2.09 -1.2&#xA;6.73 -4.5 10.31 -7.35 3.58 -2.84 21.8 -16.33 40.5 -29.97 18.7 -13.64 42.62&#xA;-31.24 53.16 -39.12 10.54 -7.87 20.11 -15.65 21.27 -17.29 1.16 -1.63 5.3&#xA;-10.06 9.19 -18.73 3.89 -8.67 9.06 -20.59 11.48 -26.5 2.42 -5.91 4.4 -11.22&#xA;4.4 -11.81 0 -.58 -.79 -1.06 -1.75 -1.05 -.96 0 -13.96 6.04 -28.88 13.41z&#xA;M1087.5 863.22 c-1.1 .6 -5.15 3.87 -9 7.27 -3.85 3.4 -10.36 8.77 -14.48&#xA;11.94 -4.12 3.17 -8.31 7.02 -9.28 8.55 -.97 1.52 -1.56 3.26 -1.25 4.07 .31&#xA;.82 2.5 2.23 4.79 2.92 2.3 .69 5.99 2.51 8.2 4.05 2.21 1.54 5.56 4.4 7.45&#xA;6.37 2.83 2.95 3.76 3.26 4.99 2.24 .82 -.68 2.51 -3.6 3.87 -6.63 1.35 -3.03&#xA;2.86 -6.85 3.35 -8.5 .49 -1.65 1.78 -8.62 2.86 -15.51 1.11 -7.11 1.71&#xA;-13.46 1.3 -14.97 -.63 -2.3 -1.06 -2.74 -2.79 -1.8z M718.92 909.27 c-1.86&#xA;1.25 -4.4 3.79 -5.65 5.65 -1.63 2.41 -2.27 4.83 -2.28 8.48 -0 4.3 -.63 6.03&#xA;-4.01 11 -2.2 3.24 -5.81 7.86 -8.03 10.26 -2.21 2.4 -4.45 5.48 -4.97 6.85&#xA;-.52 1.37 -1.38 2.49 -1.92 2.49 -.53 0 -3.96 3.83 -7.61 8.5 -3.65 4.67&#xA;-7.08 8.5 -7.62 8.5 -.54 0 -1.97 -.52 -3.17 -1.16 -1.2 -.64 -7.13 -5.3&#xA;-13.18 -10.35 -6.05 -5.05 -12.06 -9.74 -13.35 -10.43 -2.16 -1.14 -2.69 -.87&#xA;-6.55 3.28 -2.31 2.48 -5.08 6.16 -6.15 8.16 l-1.95 3.64 3.14 2.68 c1.72&#xA;1.47 5.83 4.19 9.13 6.03 3.3 1.84 11.11 7.18 17.36 11.86 6.25 4.68 12.39&#xA;8.9 13.65 9.39 1.25 .48 2.5 1.47 2.78 2.19 .28 .72 5.96 5.79 12.64 11.27&#xA;6.67 5.48 14.11 11.87 16.52 14.21 2.41 2.34 5 4.25 5.76 4.25 .76 0 3.04&#xA;-1.91 5.07 -4.25 2.03 -2.34 4.28 -5.59 4.99 -7.24 .87 -2.01 1.01 -3.51 .43&#xA;-4.59 -.47 -.88 -6.21 -5.47 -12.74 -10.18 -6.53 -4.71 -12.65 -9.75 -13.59&#xA;-11.18 -1.52 -2.32 -1.57 -2.89 -.42 -5.08 .71 -1.36 5.67 -8.66 11.01 -16.22&#xA;5.35 -7.57 11.69 -16.24 14.09 -19.28 2.95 -3.74 6.34 -6.58 10.49 -8.79 3.37&#xA;-1.79 7.15 -4.71 8.41 -6.48 1.81 -2.53 2.29 -4.53 2.27 -9.42 -.01 -4.69&#xA;-.52 -6.88 -2.09 -9 -1.14 -1.54 -3.56 -3.81 -5.38 -5.05 -2.38 -1.62 -4.76&#xA;-2.25 -8.51 -2.25 -3.76 0 -6.14 .63 -8.58 2.27z M640.78 1002.75 c-4.06 5.36&#xA;-15.44 20.33 -25.29 33.25 -9.85 12.92 -23.03 30.25 -29.29 38.5 -6.26 8.25&#xA;-12.05 16.28 -12.87 17.84 -.81 1.56 -1.21 3.11 -.84 3.48 .36 .36 8.07 .83&#xA;17.1 1.02 l16.42 .34 0 -2.27 c0 -1.25 .54 -3.87 1.2 -5.84 .66 -1.96 2.91&#xA;-5.86 5 -8.66 2.09 -2.8 3.8 -5.61 3.8 -6.25 0 -.64 .41 -1.16 .92 -1.16 .51&#xA;0 1.94 -1.69 3.2 -3.75 1.25 -2.06 2.55 -3.97 2.89 -4.25 .34 -.28 5.05 -6.8&#xA;10.48 -14.5 5.43 -7.7 14.5 -20.12 20.16 -27.6 5.66 -7.48 10.97 -14.17 11.8&#xA;-14.86 1.1 -.91 1.24 -1.75 .53 -3.08 -.54 -1 -4.21 -4.11 -8.17 -6.89 -3.96&#xA;-2.79 -7.75 -5.07 -8.42 -5.07 -.67 0 -4.55 4.39 -8.61 9.75z M792.5 1081.99&#xA;c-13.73 .5 -14.01 .56 -14.33 2.85 -.25 1.79 1.09 3.61 5.75 7.83 3.34 3.03&#xA;6.1 6.25 6.12 7.17 .02 .98 1.98 2.59 4.75 3.91 3.62 1.72 13.63 9.55 27.89&#xA;21.81 2.85 2.45 5.89 4.45 6.76 4.45 .87 0 4.84 .91 8.82 2.01 l7.24 2.01&#xA;6.02 -3.04 c4.77 -2.41 8.49 -3.34 18 -4.49 6.59 -.8 24.58 -2.8 39.98 -4.46&#xA;15.4 -1.66 35.88 -3.9 45.5 -5 14.61 -1.66 35.8 -3.74 57 -5.61 9.62 -.85&#xA;26.05 -1.95 36.5 -2.45 10.45 -.5 21.99 -1.2 25.65 -1.57 3.66 -.36 8.27 -.36&#xA;10.25 .01 1.98 .37 6.5 2.66 10.05 5.09 3.55 2.43 9.06 5.74 12.25 7.37 3.19&#xA;1.62 7.4 4.68 9.36 6.79 1.96 2.11 7.09 8.23 11.38 13.6 4.3 5.37 9.38 11.14&#xA;11.29 12.82 l3.48 3.05 2.14 -2.01 c1.18 -1.11 3.71 -4.63 5.63 -7.82 1.92&#xA;-3.19 4.31 -6.48 5.3 -7.31 1.3 -1.08 1.87 -3.12 2.03 -7.21 .18 -4.75 .7&#xA;-6.2 3.08 -8.7 1.58 -1.65 4.35 -3.69 6.16 -4.55 1.81 -.86 7.93 -2.19 13.61&#xA;-2.96 5.67 -.77 14.14 -1.69 18.82 -2.05 6.1 -.46 65.76 -6.11 86.5 -8.18&#xA;9.35 -.94 22.25 -1.73 28.66 -1.77 11.42 -.07 11.75 -0 15.99 2.97 2.38 1.67&#xA;5.99 5.24 8.02 7.93 2.03 2.69 5.79 9.87 8.35 15.96 2.56 6.09 6.26 14.56&#xA;8.22 18.82 2.33 5.07 4.13 7.75 5.21 7.75 .9 0 2.18 -.54 2.84 -1.2 .89 -.89&#xA;1.2 -10.48 1.2 -36.94 0 -20.54 -.39 -35.98 -.92 -36.31 -.5 -.31 -125.94&#xA;-.68 -278.75 -.82 -152.81 -.14 -284.13 -.03 -291.83 .26z M504.49 1175.37&#xA;c-.55 .75 -5.24 6.92 -10.43 13.7 -5.19 6.78 -10.44 14.15 -11.67 16.38 -1.23&#xA;2.23 -2.91 6.75 -3.73 10.05 -.82 3.3 -2.39 11.62 -3.5 18.5 -1.1 6.88 -2.22&#xA;14.41 -2.49 16.75 -.27 2.34 -.1 4.25 .36 4.25 .47 0 1.1 -.42 1.42 -.92 .31&#xA;-.51 2.81 -1.67 5.55 -2.58 3.81 -1.26 5.34 -2.4 6.5 -4.83 .84 -1.75 4.7&#xA;-7.45 8.58 -12.67 3.88 -5.22 8.24 -11.53 9.68 -14 1.45 -2.47 3.89 -6.07&#xA;5.43 -7.98 1.54 -1.91 2.81 -3.89 2.81 -4.39 0 -.5 2.51 -3.77 5.58 -7.27&#xA;4.42 -5.04 5.25 -6.49 4 -6.97 -.87 -.34 -2.29 -2.09 -3.15 -3.91 -.86 -1.81&#xA;-4.05 -6.04 -7.08 -9.39 -3.03 -3.35 -5.82 -6.09 -6.19 -6.09 -.37 0 -1.12&#xA;.62 -1.67 1.37z M1177.38 1446.45 c-.32 .83 .12 4.92 .97 9.1 .85 4.18 2.36&#xA;8.98 3.35 10.67 .99 1.69 2.99 3.96 4.44 5.04 2.58 1.93 2.77 1.93 9.34 .28&#xA;6.55 -1.64 6.86 -1.63 13.52 .39 3.75 1.14 7.53 2.07 8.41 2.07 1.22 0 1.59&#xA;-1.04 1.59 -4.44 0 -3.21 -.63 -5.14 -2.25 -6.93 -1.33 -1.47 -8.17 -4.91&#xA;-16.75 -8.43 -7.97 -3.27 -16.2 -6.69 -18.27 -7.6 -3.38 -1.48 -3.83 -1.49&#xA;-4.35 -.15z" fill="#66c8b9" fill-rule="evenodd" stroke="#66c8b9" stroke-linejoin="round" stroke-width="0.80"/>
<path d="M703 588.1 c-1.92 1.66 -9.35 6.65 -16.5 11.09 -7.15 4.43 -17.14 11.1 -22.19&#xA;14.82 l-9.1 6.84 2.19 2.06 c1.21 1.13 4.81 3.22 8.1 4.75 3.3 1.52 7.57 2.73&#xA;9.5 2.69 2.32 -.05 9.96 -3.31 22.6 -9.64 12.74 -6.38 19.98 -10.6 21.72&#xA;-12.68 1.44 -1.71 3.04 -4.78 3.54 -6.82 .51 -2.04 1.16 -5.23 1.47 -6.99 .41&#xA;-2.29 .24 -2.99 -.63 -2.66 -.67 .26 -4.52 -1.11 -8.55 -3.04 -4.03 -1.93&#xA;-7.63 -3.49 -8 -3.47 -.37 .02 -2.24 1.4 -4.17 3.06z M515.5 1196.96 c-2.2&#xA;2.71 -4.68 4.96 -5.51 4.99 -.83 .03 -2.08 .97 -2.78 2.09 -.7 1.12 -1 2.49&#xA;-.66 3.04 .34 .55 -.77 2.89 -2.46 5.21 -1.69 2.31 -5.45 7.69 -8.33 11.95&#xA;-2.89 4.26 -7.56 11.01 -10.37 15 -2.81 3.99 -5.45 8.33 -5.86 9.65 -.71 2.28&#xA;-.58 2.37 2.62 1.75 1.85 -.36 9.44 -3.65 16.86 -7.33 12.42 -6.15 14.22&#xA;-7.41 22.57 -15.75 4.99 -4.99 10.32 -11.22 11.86 -13.84 l2.78 -4.77 -2.85&#xA;-3.73 c-1.56 -2.05 -4.9 -5.87 -7.42 -8.48 -2.52 -2.61 -5 -4.74 -5.51 -4.74&#xA;-.51 .01 -2.73 2.24 -4.93 4.95z M660.6 1232.54 c-3.24 .82 -7.29 2.35 -9&#xA;3.41 -1.71 1.06 -4.62 3.5 -6.49 5.43 l-3.38 3.5 4.88 3.1 c2.69 1.7 7.07&#xA;3.75 9.75 4.54 2.67 .79 15.5 3.01 28.5 4.93 13 1.92 32.41 4.66 43.14 6.08&#xA;10.73 1.43 25.03 3.48 31.78 4.57 6.75 1.09 12.76 1.68 13.29 1.35 .53 -.33&#xA;.93 -2.27 .93 -4.33 0 -2.07 -.42 -6.2 -.94 -9.19 -.52 -2.99 -1.23 -8.17&#xA;-1.58 -11.52 l-.64 -6.09 -5.54 .87 c-3.05 .48 -9.65 2.47 -14.67 4.43 -5.02&#xA;1.96 -11.64 3.8 -14.7 4.09 -5.02 .48 -6.61 .08 -16 -3.99 -5.73 -2.49 -16.27&#xA;-6.22 -23.42 -8.29 -9.41 -2.72 -15.35 -3.85 -21.5 -4.07 -5.22 -.19 -10.78&#xA;.27 -14.4 1.18z M644.22 1304.75 c-1.1 .96 -6.69 7.15 -12.42 13.75 -5.73 6.6&#xA;-13.4 15.69 -17.05 20.21 -3.65 4.51 -7.11 9.91 -7.68 12 -.58 2.09 -1.52&#xA;18.64 -2.09 36.79 -.57 18.15 -1.45 38.72 -1.94 45.72 -.75 10.54 -1.5 14.4&#xA;-4.39 22.5 -1.92 5.38 -6.04 16.98 -9.15 25.78 -3.12 8.8 -7.2 22.07 -9.08&#xA;29.48 -1.88 7.42 -3.41 15.26 -3.41 17.26 0 2.98 .71 4.16 3.96 7.09 2.18&#xA;1.97 6.59 4.91 9.77 6.51 3.18 1.6 8.25 3.41 11.28 4.02 3.02 .61 10.67 1.22&#xA;17 1.37 6.33 .14 22.08 .14 35 -0 12.92 -.15 24.17 -.69 25 -1.21 1.14 -.72&#xA;1.57 -3.4 1.78 -11.23 .19 -7.01 -.13 -11.08 -1.02 -12.77 -.72 -1.36 -5.66&#xA;-5.75 -10.99 -9.74 -8.95 -6.7 -9.95 -7.81 -13.17 -14.52 -1.92 -3.99 -4.44&#xA;-10.77 -5.61 -15.05 -1.37 -5.02 -1.89 -8.93 -1.46 -11 .37 -1.77 9.91 -21.44&#xA;21.21 -43.71 11.29 -22.28 23.05 -45 26.12 -50.5 3.07 -5.5 6.83 -11.76 8.37&#xA;-13.9 1.53 -2.15 2.79 -4.43 2.79 -5.08 0 -.65 -1.91 -2.53 -4.25 -4.18 -2.34&#xA;-1.65 -8.08 -4.85 -12.75 -7.1 -5.71 -2.75 -11.08 -6.41 -16.35 -11.13 -6.2&#xA;-5.56 -9.11 -9.2 -13.88 -17.32 -3.32 -5.66 -7.18 -11.52 -8.59 -13.03 -1.41&#xA;-1.51 -3.1 -2.75 -3.76 -2.75 -.66 0 -2.1 .79 -3.21 1.75z M220 1608.54 c0&#xA;25.83 .46 54.16 1.02 62.96 .56 8.8 1.67 20.06 2.46 25.01 .79 4.96 2.61&#xA;13.06 4.04 18 1.43 4.94 4.89 13.68 7.7 19.42 2.81 5.74 7.84 14.51 11.17&#xA;19.5 3.33 4.99 9.29 12.45 13.24 16.58 3.95 4.14 11.44 10.62 16.65 14.41&#xA;5.21 3.79 13.65 9.28 18.77 12.21 5.12 2.93 12.51 6.66 16.43 8.29 3.92 1.63&#xA;11.13 4.13 16.03 5.55 4.9 1.42 12.97 2.98 17.94 3.47 4.97 .49 64.84 .99&#xA;133.04 1.11 68.2 .12 157.47 .15 198.37 .08 l74.37 -.14 -1.46 -2.25 c-.87&#xA;-1.35 -4.04 -3.14 -7.87 -4.46 -4.21 -1.46 -8.86 -2.23 -13.55 -2.25 -3.93&#xA;-.02 -10.77 -.72 -15.21 -1.57 -7.2 -1.37 -8.46 -1.37 -11.66 -.03 -1.98 .83&#xA;-5.25 2.86 -7.27 4.53 -2.02 1.67 -4.16 3.03 -4.75 3.03 -.59 0 -2.46 -1.46&#xA;-4.15 -3.25 -1.69 -1.79 -3.58 -4.23 -4.2 -5.43 -.62 -1.2 -1.12 -3.74 -1.12&#xA;-5.63 0 -2.52 .82 -4.24 3.04 -6.42 1.67 -1.63 4.71 -3.46 6.75 -4.05 7.8&#xA;-2.27 13.15 -2.31 24.72 -.21 10.88 1.98 12.8 2.06 21.9 .95 6.42 -.79 13.19&#xA;-.96 19.03 -.48 4.98 .41 9.9 .72 10.92 .69 1.02 -.03 2.01 -.2 2.2 -.38 .18&#xA;-.18 .96 -3.36 1.72 -7.05 l1.38 -6.72 -201.08 -.01 c-121.14 -.01 -206.48&#xA;-.4 -214.65 -.99 -7.99 -.58 -17.57 -1.99 -23.28 -3.44 -5.34 -1.35 -14.01&#xA;-4.5 -19.28 -7 -5.27 -2.49 -12.4 -6.56 -15.86 -9.02 -3.46 -2.47 -8.85 -7.31&#xA;-11.99 -10.77 -3.13 -3.45 -8.13 -9.93 -11.11 -14.39 -2.98 -4.46 -7.23&#xA;-11.98 -9.44 -16.72 -2.22 -4.73 -4.94 -12.11 -6.05 -16.39 -1.47 -5.66 -2.27&#xA;-13.38 -2.94 -28.28 -.5 -11.28 -.94 -31.97 -.96 -46 -.03 -14.03 -.43 -26.11&#xA;-.9 -26.85 -.71 -1.13 -1.26 -1.14 -3.23 -.08 -1.31 .7 -5.24 3.46 -8.74 6.15&#xA;-3.5 2.68 -6.85 4.72 -7.43 4.52 -.59 -.2 -1.92 -1.99 -2.96 -4 -1.1 -2.12&#xA;-2.25 -7.33 -2.76 -12.44 -.48 -4.84 -1.97 -12.11 -3.33 -16.16 -1.35 -4.05&#xA;-3.18 -8.08 -4.06 -8.96 -1.47 -1.47 -1.6 2.33 -1.6 45.37z" fill="#297f86" fill-rule="evenodd" stroke="#297f86" stroke-linejoin="round" stroke-width="0.80"/>
</svg>